<svg xmlns="http://www.w3.org/2000/svg" xmlns:xlink="http://www.w3.org/1999/xlink" width="260.448" height="222.411" viewBox="0 0 260.448 222.411">
  <defs>
    <linearGradient id="linear-gradient" x1="0.502" y1="-0.134" x2="0.499" y2="1.049" gradientUnits="objectBoundingBox">
      <stop offset="0" stop-color="#0067a9"/>
      <stop offset="1" stop-color="#133b67"/>
    </linearGradient>
    <linearGradient id="linear-gradient-2" x1="0.495" y1="1.018" x2="0.502" y2="-0.076" gradientUnits="objectBoundingBox">
      <stop offset="0" stop-color="#d91f26"/>
      <stop offset="1" stop-color="#ef4923"/>
    </linearGradient>
    <linearGradient id="linear-gradient-3" x1="0.488" y1="0.981" x2="0.632" y2="0.006" xlink:href="#linear-gradient-2"/>
    <linearGradient id="linear-gradient-4" x1="0.504" y1="-0.118" x2="0.493" y2="1.043" xlink:href="#linear-gradient"/>
  </defs>
  <g id="Group_2904" data-name="Group 2904" transform="translate(-92.276 -272)">
    <g id="Group_2486" data-name="Group 2486" transform="translate(-411.462 -1068.978)">
      <path id="Path_541" data-name="Path 541" d="M503.738,1536.505h12.124a10.4,10.4,0,0,1,7.229,2.41,8.311,8.311,0,0,1,0,12.35,10.4,10.4,0,0,1-7.229,2.41h-4.029v9.188h-8.1v-26.357Zm8.1,11.3h2.937a2.993,2.993,0,0,0,2.014-.659,2.146,2.146,0,0,0,.772-1.713,2.072,2.072,0,0,0-.791-1.695,3.069,3.069,0,0,0-2-.64h-2.937v4.707Zm16.115,4.142v-15.438h8.1v15.475a3.971,3.971,0,0,0,1.092,3.05,4.032,4.032,0,0,0,2.862,1.017,3.963,3.963,0,0,0,2.843-1.017,4.01,4.01,0,0,0,1.073-3.05v-15.475h8.1v15.438q0,5.5-3.426,8.472a12.449,12.449,0,0,1-8.585,2.974,12.68,12.68,0,0,1-8.622-2.974q-3.426-2.974-3.426-8.472Zm47.819,10.919H555.7v-26.357h8.1V1555.9h11.974v6.966Zm13.066.527a20.03,20.03,0,0,1-10.957-2.824v-7.907a14.754,14.754,0,0,0,5.121,2.6,19.864,19.864,0,0,0,5.987,1.092q3.05,0,3.05-1.243,0-.527-1.129-1.054a43.046,43.046,0,0,0-4.368-1.468,16.568,16.568,0,0,1-6.5-3.257,6.681,6.681,0,0,1-2.165-5.177,6.948,6.948,0,0,1,3.012-6.062q3.012-2.109,8.321-2.109a22.258,22.258,0,0,1,9.526,2.109v7.531a17.82,17.82,0,0,0-4.857-1.883,20.51,20.51,0,0,0-5.271-.791q-2.335,0-2.334.979,0,.489,1.092,1.016,1.092.415,4.932,1.582a14.469,14.469,0,0,1,6.138,3.238,6.747,6.747,0,0,1,2,4.97,7.486,7.486,0,0,1-3.2,6.326,13.918,13.918,0,0,1-8.4,2.334Zm35.507-.527h-20.9v-26.357h20.671v6.966H611.538v2.334H621.4v6.4h-9.865v3.69h12.8Z" transform="translate(0)" fill-rule="evenodd" fill="url(#linear-gradient)"/>
      <path id="Path_542" data-name="Path 542" d="M1043.553,1562.862h-13.932v-26.357h13.367a9.851,9.851,0,0,1,6.024,1.732,5.758,5.758,0,0,1,2.372,5.008,4.866,4.866,0,0,1-1.054,3.2,6.639,6.639,0,0,1-2.108,1.807,6.059,6.059,0,0,1,3.351,2.259,6.866,6.866,0,0,1,1.657,4.707,6.711,6.711,0,0,1-2.674,5.535,10.979,10.979,0,0,1-7,2.109Zm-5.836-10.882v4.368h4.255a2.543,2.543,0,0,0,1.751-.584,1.983,1.983,0,0,0,.659-1.562,2.072,2.072,0,0,0-.678-1.6,2.463,2.463,0,0,0-1.732-.622Zm0-9.187v3.54h4.1a1.983,1.983,0,0,0,1.374-.49,1.556,1.556,0,0,0,.546-1.2,1.741,1.741,0,0,0-.546-1.337,1.939,1.939,0,0,0-1.374-.508Zm38.406,20.069h-20.069v-26.357h8.1V1555.9h11.974v6.966Zm10.693-8.622a5.821,5.821,0,0,0,8.359,0,6.571,6.571,0,0,0,1.657-4.556,6.348,6.348,0,0,0-1.657-4.518,5.736,5.736,0,0,0-8.359,0,6.348,6.348,0,0,0-1.657,4.518,6.571,6.571,0,0,0,1.657,4.556Zm-5.949,5.121a13.726,13.726,0,0,1,0-19.354,14.7,14.7,0,0,1,20.219,0,13.772,13.772,0,0,1,0,19.391,14.75,14.75,0,0,1-20.219-.038Zm36.674-5.121a5.821,5.821,0,0,0,8.359,0,6.57,6.57,0,0,0,1.657-4.556,6.348,6.348,0,0,0-1.657-4.518,5.736,5.736,0,0,0-8.359,0,6.348,6.348,0,0,0-1.657,4.518,6.571,6.571,0,0,0,1.657,4.556Zm-5.949,5.121a13.727,13.727,0,0,1,0-19.354,14.7,14.7,0,0,1,20.219,0,13.772,13.772,0,0,1,0,19.391,14.75,14.75,0,0,1-20.219-.038Zm38.594,3.5h-11.107v-26.357h11.107a15.31,15.31,0,0,1,10.581,3.69,13.02,13.02,0,0,1,0,18.977,15.31,15.31,0,0,1-10.581,3.69Zm-3.012-19.391V1555.9h2.485a7.328,7.328,0,0,0,5.083-1.6,6.9,6.9,0,0,0,0-9.225,7.326,7.326,0,0,0-5.083-1.6Z" transform="translate(-400.685)" fill-rule="evenodd" fill="url(#linear-gradient-2)"/>
    </g>
    <g id="Group_2487" data-name="Group 2487" transform="translate(-526.874 -177.824)">
      <path id="Path_543" data-name="Path 543" d="M679.578,560.826c3.538-35.8,49.9-60.894,60.448-111,10.97,52.107,60.662,77.168,60.662,115.338a61.1,61.1,0,0,1-.531,8.036l19.268,2.5-41.305-.055a3.958,3.958,0,0,0-3.742,2.4l-1.245,2.931c-.292.689-1.195.949-1.439.039q-2.792-10.422-5.585-20.843a3.953,3.953,0,0,0-7.442-.515l-4.617,10.9c-.235.556-1.108.711-1.224.022q-2.059-12.21-4.118-24.42a3.949,3.949,0,0,0-7.735-.215q-3.439,15.2-6.879,30.39c-.316,1.4-1.332,1.169-1.642.036q-2.222-8.13-4.445-16.261a3.949,3.949,0,0,0-7.38-1.108l-7.482,16.7H695.315C679.948,575.7,678.567,571.054,679.578,560.826Z" transform="translate(0 0)" fill-rule="evenodd" fill="url(#linear-gradient-3)"/>
      <path id="Path_544" data-name="Path 544" d="M768.832,1207.875a60.589,60.589,0,0,1-49.972-26.268c-5.031-7.3-9.69-15.961,5.86-15.961h19.624a3.947,3.947,0,0,0,3.536-2.193l3.217-6.178c.837-1.451,1.926-1.088,2.209.342l4.712,23.868a3.95,3.95,0,0,0,7.744-.013l6.557-28.965c.233-1.027,1.149-.862,1.315.123q1.407,8.348,2.815,16.7a3.948,3.948,0,0,0,7.567.773l5.4-12.752c.18-.424,1.315-.466,1.453-.013l5.526,18.193a3.944,3.944,0,0,0,7.474.442l5.554-10.382,17.229.023-.007.022,8.326-.011,12.992.017-22.329,2.9A60.68,60.68,0,0,1,768.832,1207.875Z" transform="translate(-28.806 -582.052)" fill-rule="evenodd" fill="url(#linear-gradient-4)"/>
    </g>
  </g>
</svg>
