<svg xmlns="http://www.w3.org/2000/svg" xmlns:xlink="http://www.w3.org/1999/xlink" width="170.063" height="48.23" viewBox="0 0 170.063 48.23">
  <defs>
    <linearGradient id="linear-gradient" x1="0.502" y1="-0.134" x2="0.499" y2="1.049" gradientUnits="objectBoundingBox">
      <stop offset="0" stop-color="#0067a9"/>
      <stop offset="1" stop-color="#133b67"/>
    </linearGradient>
    <linearGradient id="linear-gradient-2" x1="0.495" y1="1.018" x2="0.502" y2="-0.076" gradientUnits="objectBoundingBox">
      <stop offset="0" stop-color="#d91f26"/>
      <stop offset="1" stop-color="#ef4923"/>
    </linearGradient>
    <linearGradient id="linear-gradient-3" x1="0.488" y1="0.981" x2="0.632" y2="0.006" xlink:href="#linear-gradient-2"/>
    <linearGradient id="linear-gradient-4" x1="0.504" y1="-0.118" x2="0.493" y2="1.043" xlink:href="#linear-gradient"/>
  </defs>
  <g id="Group_2488" data-name="Group 2488" transform="translate(-20 -42.904)">
    <g id="Group_2486" data-name="Group 2486" transform="translate(64.105 67.019)">
      <path id="Path_541" data-name="Path 541" d="M503.738,1536.233H509.6a5.028,5.028,0,0,1,3.5,1.166,4.02,4.02,0,0,1,0,5.973,5.026,5.026,0,0,1-3.5,1.166h-1.949v4.443h-3.915v-12.747Zm3.915,5.463h1.42a1.447,1.447,0,0,0,.974-.319,1.037,1.037,0,0,0,.373-.828,1,1,0,0,0-.382-.82,1.485,1.485,0,0,0-.965-.31h-1.42v2.276Zm7.794,2v-7.466h3.915v7.484a1.92,1.92,0,0,0,.528,1.475,1.95,1.95,0,0,0,1.384.492,1.918,1.918,0,0,0,1.375-.492,1.939,1.939,0,0,0,.519-1.475v-7.484h3.915v7.466a5.133,5.133,0,0,1-1.657,4.1,6.02,6.02,0,0,1-4.152,1.438,6.132,6.132,0,0,1-4.17-1.438,5.133,5.133,0,0,1-1.657-4.1Zm23.126,5.281h-9.706v-12.747h3.915v9.378h5.791v3.369Zm6.319.255a9.688,9.688,0,0,1-5.3-1.365v-3.824a7.133,7.133,0,0,0,2.476,1.257,9.609,9.609,0,0,0,2.9.528q1.475,0,1.475-.6,0-.255-.546-.51a20.887,20.887,0,0,0-2.112-.71,8.013,8.013,0,0,1-3.141-1.575,3.231,3.231,0,0,1-1.047-2.5A3.36,3.36,0,0,1,541.05,1537a6.924,6.924,0,0,1,4.024-1.02,10.763,10.763,0,0,1,4.607,1.02v3.642a8.619,8.619,0,0,0-2.349-.911,9.919,9.919,0,0,0-2.549-.382q-1.129,0-1.129.473,0,.237.528.492.528.2,2.385.765a7,7,0,0,1,2.968,1.566,3.262,3.262,0,0,1,.965,2.4,3.621,3.621,0,0,1-1.548,3.059,6.732,6.732,0,0,1-4.061,1.129Zm17.172-.255H551.957v-12.747h10v3.369h-6.082v1.129h4.771v3.1h-4.771v1.785h6.191Z" transform="translate(-503.738 -1535.978)" fill-rule="evenodd" fill="url(#linear-gradient)"/>
      <path id="Path_542" data-name="Path 542" d="M1036.359,1548.98h-6.738v-12.747h6.465a4.765,4.765,0,0,1,2.914.838,2.785,2.785,0,0,1,1.147,2.422,2.353,2.353,0,0,1-.51,1.548,3.215,3.215,0,0,1-1.02.874,2.929,2.929,0,0,1,1.621,1.092,3.32,3.32,0,0,1,.8,2.277,3.245,3.245,0,0,1-1.293,2.677,5.31,5.31,0,0,1-3.387,1.02Zm-2.823-5.262v2.112h2.058a1.231,1.231,0,0,0,.847-.282.96.96,0,0,0,.319-.756,1,1,0,0,0-.328-.774,1.191,1.191,0,0,0-.838-.3Zm0-4.443v1.712h1.985a.958.958,0,0,0,.665-.237.752.752,0,0,0,.264-.583.843.843,0,0,0-.264-.647.938.938,0,0,0-.665-.246Zm18.574,9.706h-9.706v-12.747h3.915v9.378h5.791v3.369Zm5.171-4.17a2.815,2.815,0,0,0,4.043,0,3.178,3.178,0,0,0,.8-2.2,3.07,3.07,0,0,0-.8-2.185,2.774,2.774,0,0,0-4.043,0,3.07,3.07,0,0,0-.8,2.185,3.178,3.178,0,0,0,.8,2.2Zm-2.877,2.476a6.638,6.638,0,0,1,0-9.36,7.108,7.108,0,0,1,9.779,0,6.661,6.661,0,0,1,0,9.378,7.133,7.133,0,0,1-9.779-.018Zm17.736-2.476a2.815,2.815,0,0,0,4.043,0,3.177,3.177,0,0,0,.8-2.2,3.069,3.069,0,0,0-.8-2.185,2.774,2.774,0,0,0-4.043,0,3.069,3.069,0,0,0-.8,2.185,3.177,3.177,0,0,0,.8,2.2Zm-2.877,2.476a6.638,6.638,0,0,1,0-9.36,7.109,7.109,0,0,1,9.779,0,6.661,6.661,0,0,1,0,9.378,7.133,7.133,0,0,1-9.779-.018Zm18.665,1.694h-5.372v-12.747h5.372a7.4,7.4,0,0,1,5.117,1.785,6.3,6.3,0,0,1,0,9.178,7.4,7.4,0,0,1-5.117,1.784Zm-1.457-9.378v6.009h1.2a3.546,3.546,0,0,0,2.458-.774,3.335,3.335,0,0,0,0-4.461,3.545,3.545,0,0,0-2.458-.774Z" transform="translate(-969.073 -1535.978)" fill-rule="evenodd" fill="url(#linear-gradient-2)"/>
    </g>
    <g id="Group_2487" data-name="Group 2487" transform="translate(20 42.904)">
      <path id="Path_543" data-name="Path 543" d="M679.393,480.242c.969-9.809,13.674-16.687,16.565-30.418,3.006,14.279,16.623,21.146,16.623,31.606a16.735,16.735,0,0,1-.146,2.2l5.28.686L706.4,484.3a1.084,1.084,0,0,0-1.026.658l-.341.8c-.08.189-.327.26-.394.011l-1.53-5.712a1.083,1.083,0,0,0-2.039-.141l-1.265,2.988c-.064.152-.3.195-.335.006l-1.128-6.692a1.082,1.082,0,0,0-2.12-.059l-1.885,8.328c-.087.382-.365.32-.45.01l-1.218-4.456a1.082,1.082,0,0,0-2.022-.3l-2.05,4.576h-4.886C679.495,484.319,679.116,483.045,679.393,480.242Z" transform="translate(-679.323 -449.824)" fill-rule="evenodd" fill="url(#linear-gradient-3)"/>
      <path id="Path_544" data-name="Path 544" d="M729.073,1167.173a16.6,16.6,0,0,1-13.694-7.2c-1.378-2-2.655-4.374,1.606-4.374h5.378a1.082,1.082,0,0,0,.969-.6l.882-1.693c.229-.4.528-.3.605.094l1.291,6.541a1.082,1.082,0,0,0,2.122,0l1.8-7.937c.064-.281.315-.236.36.034l.772,4.575a1.082,1.082,0,0,0,2.073.212l1.48-3.494c.049-.116.36-.128.4,0l1.514,4.986a1.081,1.081,0,0,0,2.048.121l1.522-2.845,4.721.006,0,.006,2.281,0,3.56,0-6.119.8A16.628,16.628,0,0,1,729.073,1167.173Z" transform="translate(-712.439 -1118.944)" fill-rule="evenodd" fill="url(#linear-gradient-4)"/>
    </g>
  </g>
</svg>
