<svg xmlns="http://www.w3.org/2000/svg" xmlns:xlink="http://www.w3.org/1999/xlink" width="355.14" height="356.801" viewBox="0 0 355.14 356.801">
  <defs>
    <linearGradient id="linear-gradient" x1="-0.415" y1="-0.32" x2="0.574" y2="0.983" gradientUnits="objectBoundingBox">
      <stop offset="0" stop-color="#ff928e"/>
      <stop offset="1" stop-color="#fe7062"/>
    </linearGradient>
    <linearGradient id="linear-gradient-2" x1="0.226" y1="-0.681" x2="1.593" y2="4.417" xlink:href="#linear-gradient"/>
    <linearGradient id="linear-gradient-3" x1="2.415" y1="-2.234" x2="1.397" y2="-0.845" gradientUnits="objectBoundingBox">
      <stop offset="0" stop-color="#e1473d"/>
      <stop offset="1" stop-color="#e9605a"/>
    </linearGradient>
    <linearGradient id="linear-gradient-4" x1="2.027" y1="-29.004" x2="1.534" y2="-21.15" gradientUnits="objectBoundingBox">
      <stop offset="0" stop-color="#febbba"/>
      <stop offset="1" stop-color="#ff928e"/>
    </linearGradient>
    <linearGradient id="linear-gradient-5" x1="2.126" y1="-30.668" x2="1.633" y2="-22.814" xlink:href="#linear-gradient-4"/>
    <linearGradient id="linear-gradient-6" x1="4.654" y1="-11.698" x2="3.495" y2="-8.841" xlink:href="#linear-gradient-4"/>
    <linearGradient id="linear-gradient-7" x1="4.464" y1="-6.203" x2="3.208" y2="-4.628" xlink:href="#linear-gradient-3"/>
    <linearGradient id="linear-gradient-8" x1="4.154" y1="-5.791" x2="2.898" y2="-4.215" gradientUnits="objectBoundingBox">
      <stop offset="0" stop-color="#fdf53f"/>
      <stop offset="1" stop-color="#d93c65"/>
    </linearGradient>
    <linearGradient id="linear-gradient-9" y1="0.5" x2="1" y2="0.5" gradientUnits="objectBoundingBox">
      <stop offset="0" stop-color="#09005d"/>
      <stop offset="1" stop-color="#1a0f91"/>
    </linearGradient>
    <linearGradient id="linear-gradient-10" x1="-88.628" y1="0.5" x2="-87.628" y2="0.5" gradientUnits="objectBoundingBox">
      <stop offset="0" stop-color="#4f52ff"/>
      <stop offset="1" stop-color="#4042e2"/>
    </linearGradient>
    <linearGradient id="linear-gradient-11" x1="0.154" y1="6.139" x2="0.427" y2="1.692" xlink:href="#linear-gradient-10"/>
    <linearGradient id="linear-gradient-12" x1="0.527" y1="0.316" x2="0.733" y2="-1.126" xlink:href="#linear-gradient-9"/>
    <linearGradient id="linear-gradient-13" x1="1.116" y1="-40.228" x2="0.784" y2="-18.258" xlink:href="#linear-gradient-9"/>
    <linearGradient id="linear-gradient-14" x1="0.559" y1="-0.051" x2="1.837" y2="-11.918" xlink:href="#linear-gradient-10"/>
    <linearGradient id="linear-gradient-15" x1="-62.694" y1="0.356" x2="-62.924" y2="0.685" gradientUnits="objectBoundingBox">
      <stop offset="0" stop-color="#cb236d"/>
      <stop offset="1" stop-color="#4c246d"/>
    </linearGradient>
    <linearGradient id="linear-gradient-16" x1="-23.541" y1="0.5" x2="-22.541" y2="0.5" xlink:href="#linear-gradient-4"/>
    <linearGradient id="linear-gradient-17" x1="-51.791" y1="-15.003" x2="-51.57" y2="-16.064" xlink:href="#linear-gradient-4"/>
    <linearGradient id="linear-gradient-18" x1="-38.176" y1="-13.83" x2="-39.117" y2="-13.069" xlink:href="#linear-gradient-4"/>
    <linearGradient id="linear-gradient-19" x1="-42.327" y1="-9.893" x2="-41.381" y2="-9.05" xlink:href="#linear-gradient-9"/>
    <linearGradient id="linear-gradient-20" x1="-150.042" y1="-59.79" x2="-153.666" y2="-56.673" xlink:href="#linear-gradient-4"/>
    <linearGradient id="linear-gradient-21" x1="0.401" y1="0.142" x2="0.661" y2="0.982" xlink:href="#linear-gradient-10"/>
    <linearGradient id="linear-gradient-22" x1="-31.498" y1="-3.244" x2="-32.422" y2="-0.695" xlink:href="#linear-gradient-4"/>
    <linearGradient id="linear-gradient-23" x1="0.489" y1="0.312" x2="0.383" y2="-2.597" xlink:href="#linear-gradient-10"/>
    <linearGradient id="linear-gradient-24" x1="-18.875" y1="-23.352" x2="-17.242" y2="-23.352" xlink:href="#linear-gradient-9"/>
    <linearGradient id="linear-gradient-25" x1="-13.727" y1="-25.903" x2="-14.021" y2="-25.028" xlink:href="#linear-gradient-10"/>
    <linearGradient id="linear-gradient-26" x1="-32.124" y1="-51.002" x2="-31.379" y2="-51.002" xlink:href="#linear-gradient-4"/>
    <linearGradient id="linear-gradient-27" x1="-7.28" y1="-1.926" x2="-7.69" y2="-0.174" xlink:href="#linear-gradient-9"/>
    <linearGradient id="linear-gradient-29" x1="-6.087" y1="-3.728" x2="-9.612" y2="1.896" xlink:href="#linear-gradient-4"/>
    <linearGradient id="linear-gradient-30" x1="-4.998" y1="-0.358" x2="-4.602" y2="0.293" xlink:href="#linear-gradient-9"/>
    <linearGradient id="linear-gradient-31" x1="-20.313" y1="0.5" x2="-19.313" y2="0.5" xlink:href="#linear-gradient-9"/>
    <linearGradient id="linear-gradient-32" x1="-20.564" y1="1.602" x2="-19.529" y2="-1.187" xlink:href="#linear-gradient-4"/>
    <linearGradient id="linear-gradient-33" x1="-17.914" y1="0.5" x2="-16.914" y2="0.5" xlink:href="#linear-gradient-9"/>
    <linearGradient id="linear-gradient-34" x1="-7.028" y1="1.698" x2="-6.565" y2="-1.193" xlink:href="#linear-gradient-4"/>
    <linearGradient id="linear-gradient-35" x1="2.492" y1="-3.348" x2="1.591" y2="-1.683" xlink:href="#linear-gradient-10"/>
    <linearGradient id="linear-gradient-36" x1="1.166" y1="-0.116" x2="0.032" y2="1.105" xlink:href="#linear-gradient-9"/>
    <linearGradient id="linear-gradient-37" x1="-27.511" y1="1.857" x2="-27.256" y2="0.807" xlink:href="#linear-gradient-4"/>
    <linearGradient id="linear-gradient-38" x1="-18.504" y1="0.486" x2="-16.887" y2="-1.692" xlink:href="#linear-gradient-4"/>
    <linearGradient id="linear-gradient-39" x1="-12.509" y1="-1.132" x2="-11.943" y2="0.434" xlink:href="#linear-gradient-9"/>
    <linearGradient id="linear-gradient-40" x1="-75.541" y1="1.102" x2="-68.805" y2="-5.793" xlink:href="#linear-gradient-4"/>
    <linearGradient id="linear-gradient-41" x1="0.663" y1="-0.11" x2="1.456" y2="-2.569" xlink:href="#linear-gradient-9"/>
    <linearGradient id="linear-gradient-42" x1="0.932" y1="-3.497" x2="0.359" y2="1.805" gradientUnits="objectBoundingBox">
      <stop offset="0" stop-color="#53d8ff"/>
      <stop offset="1" stop-color="#3840f7"/>
    </linearGradient>
    <linearGradient id="linear-gradient-43" x1="1.839" y1="-9.616" x2="0.061" y2="3.801" xlink:href="#linear-gradient-42"/>
    <linearGradient id="linear-gradient-44" x1="0" y1="0.5" x2="1" y2="0.5" xlink:href="#linear-gradient-4"/>
    <linearGradient id="linear-gradient-45" x1="1.056" y1="0.195" x2="-0.167" y2="0.784" gradientUnits="objectBoundingBox">
      <stop offset="0" stop-color="#dae3fe"/>
      <stop offset="1" stop-color="#e9effd"/>
    </linearGradient>
    <linearGradient id="linear-gradient-46" x1="1.307" y1="0.174" x2="-1.057" y2="0.826" xlink:href="#linear-gradient-45"/>
  </defs>
  <g id="Group_33" data-name="Group 33" transform="translate(-29.43 -222.199)">
    <path id="Path_7" data-name="Path 7" d="M769.67,770.064a128.394,128.394,0,0,1-19.644,16.54c-64.083,45.98-139.91,32.577-156.026,29.3-23.8-4.833-69.8-14.176-103.055-53.286-50.315-59.17-42.48-152.39-3.452-213.926,7.139-11.256,44.848-73.729,121.492-83.748,46.384-6.063,100.453,6.165,139.608,38.97C830.784,572.777,824.933,711.885,769.67,770.064Z" transform="translate(-426.266 -241.252)" fill="#fff6f7"/>
    <g id="Group_32" data-name="Group 32" transform="translate(-365.561 -206.725)">
      <path id="Path_8" data-name="Path 8" d="M920.816,1119.569c-18.108,0-29.951-3.449-37.815-10.656-15.837-14.515-14.852-43.341-13.218-91.1.878-25.664,1.97-57.6.606-95.379l4.186-.151c1.369,37.922.274,69.943-.606,95.673-1.592,46.554-2.553,74.653,11.862,87.865,10.254,9.4,28.659,11.7,61.543,7.69l.507,4.158A226.807,226.807,0,0,1,920.816,1119.569Z" transform="translate(-383.616 -399.609)" fill="url(#linear-gradient)"/>
      <g id="Group_15" data-name="Group 15" transform="translate(454.298 487.035)">
        <path id="Path_9" data-name="Path 9" d="M648.8,519.5a15.409,15.409,0,0,0-12.54,6.816,15.41,15.41,0,0,0-12.541-6.816c-8.847,0-16.018,8.068-16.018,18.02,0,8.88,15.354,25.154,25.324,31.551a5.5,5.5,0,0,0,6.32-.269c8.578-6.574,25.472-22.524,25.472-31.282C664.823,527.57,657.652,519.5,648.8,519.5Z" transform="translate(-599.816 -519.502)" fill="url(#linear-gradient-2)"/>
        <path id="Path_10" data-name="Path 10" d="M556.06,669.332h-.067a1.705,1.705,0,0,1-1.486-1l-7.457-16.4-7.21,7.9a1.705,1.705,0,0,1-1.259.555H520.251a1.705,1.705,0,1,1,0-3.41H537.83l8.445-9.25a1.705,1.705,0,0,1,2.812.444l7.122,15.669,7.311-13.23a1.705,1.705,0,0,1,3.064.163l2.971,7.056h15.92a1.705,1.705,0,0,1,0,3.41H568.423a1.7,1.7,0,0,1-1.571-1.043l-2.046-4.86-7.252,13.123A1.7,1.7,0,0,1,556.06,669.332Z" transform="translate(-518.546 -635.867)" fill="#fff"/>
      </g>
      <g id="Group_16" data-name="Group 16" transform="translate(629.996 483.883)">
        <path id="Path_11" data-name="Path 11" d="M2566.392,485.425c.345-1.139-1.234-2.01-2.281-1.265-10.631,7.568-36.478,30.608-33.115,73.917,4.22,54.337-10.006,73.175-26.932,84.148,0,0,22.565-4.244,37.791-23.309C2579.238,572.106,2560.271,505.686,2566.392,485.425Z" transform="translate(-2504.064 -483.883)" fill="#bdd0fb"/>
        <path id="Path_12" data-name="Path 12" d="M2634.875,681.88c-1.642,5.917-3.147,11.86-4.4,17.847q-1.93,8.969-3.22,18.031c-.83,6.04-1.529,12.1-1.928,18.171-.431,6.074-.559,12.162-.664,18.275a165.29,165.29,0,0,1-1.082,18.417,54.681,54.681,0,0,1-5.457,17.953c-.735,1.413-1.5,2.82-2.361,4.172-.828,1.367-1.728,2.7-2.655,4.021a65.95,65.95,0,0,1-6.233,7.534,72.533,72.533,0,0,1-15.939,12.275,1.515,1.515,0,0,1-1.9-.337,1.074,1.074,0,0,1,.322-1.616l0,0c1.411-.864,2.808-1.742,4.155-2.671.682-.455,1.339-.936,2.006-1.405.645-.491,1.313-.961,1.94-1.469a65.8,65.8,0,0,0,17.906-21.584,53.412,53.412,0,0,0,3.4-8.409,58.86,58.86,0,0,0,1.938-8.809,163.594,163.594,0,0,0,1.219-18.166c.2-6.107.457-12.243,1-18.355q.394-4.585.979-9.151c.185-1.523.4-3.042.619-4.561q.349-2.275.732-4.546,1.559-9.077,3.763-18.041c1.5-5.965,3.193-11.89,5.144-17.745a.371.371,0,0,1,.453-.21A.322.322,0,0,1,2634.875,681.88Z" transform="translate(-2581.301 -663.998)" fill="#fff" style="mix-blend-mode: soft-light;isolation: isolate"/>
      </g>
      <g id="Group_18" data-name="Group 18" transform="translate(632.482 484.407)">
        <g id="Group_17" data-name="Group 17" transform="translate(0)">
          <path id="Path_13" data-name="Path 13" d="M2539.348,605.173a2.551,2.551,0,0,0,4.121.979,77.8,77.8,0,0,0,24.321-62.237c-1.784-29.092.014-45.036,1.331-52.217a1.6,1.6,0,0,0-2.669-1.454C2554.029,501.9,2516.588,543.586,2539.348,605.173Z" transform="translate(-2532.158 -489.804)" fill="#91b3fa"/>
          <path id="Path_14" data-name="Path 14" d="M2637.849,937.834a.721.721,0,0,0,.121.063.708.708,0,0,0,.922-.389c.167-.41,16.686-41.489,16.034-82.051a.707.707,0,1,0-1.415.023c.648,40.266-15.764,81.087-15.93,81.494A.708.708,0,0,0,2637.849,937.834Z" transform="translate(-2628.205 -822.467)" fill="#fff" style="mix-blend-mode: soft-light;isolation: isolate"/>
        </g>
      </g>
      <g id="Group_20" data-name="Group 20" transform="translate(513.724 490.892)">
        <path id="Path_15" data-name="Path 15" d="M2212.332,2659.393a13.166,13.166,0,0,1-13.375-12.924l-.741-43.308,30.159-.516.741,43.308a13.166,13.166,0,0,1-12.924,13.374Z" transform="translate(-2109.008 -2422.165)" fill="#fff"/>
        <path id="Path_16" data-name="Path 16" d="M1574.334,2670.316a13.166,13.166,0,0,1-13.375-12.924l-.741-43.308,30.158-.517.742,43.308a13.166,13.166,0,0,1-12.924,13.374Z" transform="translate(-1527.466 -2432.121)" fill="#fff"/>
        <path id="Path_17" data-name="Path 17" d="M1340.559,896.12l-.532,3.991a27.623,27.623,0,0,1-27.064,24.1l-93.848,1.607a27.623,27.623,0,0,1-27.873-23.155l-.669-3.971a34.427,34.427,0,0,1,3.411-21.554l2.362-4.522a17.431,17.431,0,0,0,1.094-13.5l-4.879-14.737a34.89,34.89,0,0,1,4.582-30.929l1.251-1.773a17.351,17.351,0,0,0,2.6-14.416l-7.056-26.885a30.839,30.839,0,0,1,29.3-38.664l25-.428a4,4,0,0,0,4.144,3.549l20.8-.356a4,4,0,0,0,4.02-3.689l25-.428a30.84,30.84,0,0,1,30.6,37.639l-6.131,27.111a17.327,17.327,0,0,0,3.09,14.319l1.3,1.723a34.9,34.9,0,0,1,5.645,30.754l-4.379,14.9a17.466,17.466,0,0,0,1.563,13.454l2.516,4.439A34.424,34.424,0,0,1,1340.559,896.12Z" transform="translate(-1190.099 -715.549)" fill="#fff"/>
        <path id="Path_18" data-name="Path 18" d="M1418.275,970.141l-2.516-4.438a26.058,26.058,0,0,1-2.335-20.186l4.371-14.9a26.059,26.059,0,0,0-4.227-23.063l-1.309-1.729a26.057,26.057,0,0,1-4.639-21.476l6.133-27.112a22.021,22.021,0,0,0-21.983-26.874l-31.9.546-15.167.26-31.9.546a22.034,22.034,0,0,0-21.05,27.652l7.058,26.865a26.036,26.036,0,0,1-3.9,21.612l-1.249,1.768a26.051,26.051,0,0,0-3.435,23.192l4.878,14.738a26.056,26.056,0,0,1-1.642,20.254l-2.362,4.521a25.556,25.556,0,0,0-2.548,16.087l.668,3.862a19,19,0,0,0,19.154,15.806l36.69-.628,20.475-.35,36.69-.628a19,19,0,0,0,18.6-16.453l.535-3.936A25.4,25.4,0,0,0,1418.275,970.141Z" transform="translate(-1279.521 -806.711)" fill="url(#linear-gradient-3)"/>
        <path id="Path_19" data-name="Path 19" d="M1706.276,1358.015a5.543,5.543,0,0,0-5.637-5.447l-56.9.974a5.543,5.543,0,0,0-5.447,5.637l1.305,76.246a5.543,5.543,0,0,0,5.637,5.447l56.9-.974a5.543,5.543,0,0,0,5.447-5.637Z" transform="translate(-1598.633 -1282.706)" fill="#fff"/>
        <path id="Path_20" data-name="Path 20" d="M1780.886,1475.547a3.619,3.619,0,0,1-3.557,3.681l-45.056.771a3.619,3.619,0,0,1-3.681-3.557v-.083a3.619,3.619,0,0,1,3.557-3.681l45.056-.771a3.619,3.619,0,0,1,3.681,3.557Z" transform="translate(-1680.94 -1391.485)" fill="url(#linear-gradient-4)"/>
        <path id="Path_21" data-name="Path 21" d="M1783.922,1652.834a3.619,3.619,0,0,1-3.557,3.681l-45.056.771a3.619,3.619,0,0,1-3.681-3.557v-.083a3.619,3.619,0,0,1,3.557-3.681l45.056-.772a3.619,3.619,0,0,1,3.681,3.557Z" transform="translate(-1683.707 -1553.083)" fill="url(#linear-gradient-5)"/>
        <path id="Path_22" data-name="Path 22" d="M2088.411,1888.344a2.775,2.775,0,0,0-2.822-2.727l-16.415.281a2.775,2.775,0,0,0-2.727,2.822l.282,16.414a2.774,2.774,0,0,0,2.822,2.727l16.414-.281a2.775,2.775,0,0,0,2.727-2.822Z" transform="translate(-1988.899 -1768.586)" fill="url(#linear-gradient-6)"/>
        <path id="Path_23" data-name="Path 23" d="M1642.369,2697.661l.616,36.007a5.922,5.922,0,0,0,6.1,5.725l3.86-.066c3.265-.056,6.3-2.672,6.247-5.936l-.617-36.007Z" transform="translate(-1602.348 -2508.52)" fill="url(#linear-gradient-7)"/>
        <path id="Path_24" data-name="Path 24" d="M2280.6,2686.734l.616,36.007a5.9,5.9,0,0,0,6.084,5.725l3.86-.066c3.265-.056,6.323-2.672,6.267-5.937l-.617-36.007Z" transform="translate(-2184.103 -2498.56)" fill="url(#linear-gradient-8)"/>
        <g id="Group_19" data-name="Group 19" transform="translate(41.485)">
          <path id="Path_25" data-name="Path 25" d="M1706.128,563.089l-32.687.56a14.78,14.78,0,0,0-14.527,15.033l.106,6.21,62.247-1.066-.107-6.21A14.78,14.78,0,0,0,1706.128,563.089Zm-5.62,18.921-20.8.356a4,4,0,0,1-4.144-3.549,3.049,3.049,0,0,1-.028-.361,4,4,0,0,1,4.036-4.051l5.276-.09a4.375,4.375,0,0,1,4.022-4.413l2.345-.04a4.381,4.381,0,0,1,4.178,4.273l4.98-.085a4,4,0,0,1,4.172,3.911,3,3,0,0,1-.016.362A4,4,0,0,1,1700.508,582.01Z" transform="translate(-1658.912 -563.087)" fill="#fff"/>
        </g>
        <path id="Path_26" data-name="Path 26" d="M1395.484,959.239a.294.294,0,0,1-.093-.015.3.3,0,0,1-.192-.377c.824-2.53-.761-8.493-3.919-20.373-1.114-4.19-2.376-8.939-3.807-14.564-1.532-6.022-.835-11.042,2.071-14.921,5.769-7.7,18.446-8.24,18.573-8.245a.3.3,0,0,1,.022.6c-.125,0-12.521.536-18.117,8.008-2.791,3.727-3.454,8.576-1.969,14.413,1.43,5.622,2.693,10.369,3.806,14.558,3.188,11.994,4.789,18.014,3.91,20.712A.3.3,0,0,1,1395.484,959.239Z" transform="translate(-1369.287 -870.865)" fill="#fff" opacity="0.52"/>
      </g>
      <g id="Group_27" data-name="Group 27" transform="translate(555.34 612.86)">
        <path id="Path_27" data-name="Path 27" d="M2337.475,2455.306a6.29,6.29,0,0,1,4.485-1.306l45.411,4.042c.836.076,1.755.692,1.755,1.427v.744c0,.408-.481.8-.829,1.068a2.176,2.176,0,0,1-1.415.357l-41.5-4.023a4.164,4.164,0,0,0-3.047.9,3.076,3.076,0,0,0-1.148,2.6l1.15,13.29c-1.3,2.358-2.944,2.3-4.23,1.682a3.629,3.629,0,0,1-2.166-3.13l-.318-13.851A4.758,4.758,0,0,1,2337.475,2455.306Z" transform="translate(-2275.871 -2408.617)" fill="url(#linear-gradient-9)"/>
        <path id="Path_28" data-name="Path 28" d="M3040.313,2129.472c-.805-.274-4.535-3.288-6.046-.846s-5.949,17.092-.3,17.442S3040.313,2129.472,3040.313,2129.472Z" transform="translate(-2909.879 -2111.196)" fill="url(#linear-gradient-10)"/>
        <rect id="Rectangle_2" data-name="Rectangle 2" width="72.405" height="42.186" transform="translate(40.85 73.056)" fill="url(#linear-gradient-11)"/>
        <path id="Path_29" data-name="Path 29" d="M1718.144,2129.568c.629-1.272,26.628-15.541,35-20.111a11.741,11.741,0,0,1,5.5-1.437l57.226-.74a4.262,4.262,0,0,0,3.629-2.119l19.015-32.707,5.1-18.5a5.249,5.249,0,0,1,6.364-3.689l.531.136a5.25,5.25,0,0,1,3.8,6.3l-3.933,16.561-20.434,41.122a4.262,4.262,0,0,1-3.716,2.365l-63.1,1.5a11.817,11.817,0,0,0-4.882,1.184l-32.041,15.556a5.981,5.981,0,0,1-6.541-.872C1718.3,2132.919,1717.27,2131.335,1718.144,2129.568Z" transform="translate(-1712.74 -2040.485)" fill="url(#linear-gradient-12)"/>
        <path id="Path_30" data-name="Path 30" d="M2024.377,3208.521a2.939,2.939,0,0,0,2.858,3.014h83.377a2.939,2.939,0,0,0,2.857-3.014v-.02a2.939,2.939,0,0,0-2.857-3.014h-83.377a2.939,2.939,0,0,0-2.858,3.014Z" transform="translate(-1992.168 -3093.63)" fill="url(#linear-gradient-13)"/>
        <rect id="Rectangle_3" data-name="Rectangle 3" width="30.219" height="13.464" rx="6.732" transform="translate(63.44 89.661)" fill="url(#linear-gradient-14)"/>
        <g id="Group_21" data-name="Group 21" transform="translate(100.152 37.939)">
          <path id="Path_31" data-name="Path 31" d="M2792.553,2382.925a.346.346,0,0,0,.045,0c5.861-.7,11.477-11.76,11.714-12.231a.372.372,0,0,0-.665-.334c-.056.112-5.672,11.174-11.137,11.826a.372.372,0,0,0,.043.741Z" transform="translate(-2792.181 -2370.153)" fill="url(#linear-gradient-15)"/>
        </g>
        <g id="Group_26" data-name="Group 26">
          <path id="Path_32" data-name="Path 32" d="M2348.053,2413.369c-.867-.406-8.681-.62-11.967,0s-11.222,0-11.222,0-3.224-2.6-4.712-.992c0,0-1.86,1.364-1.86,2.108s-.682,2.573.868,2.961a19.051,19.051,0,0,0,4.836,0l20.9,1.441Z" transform="translate(-2259.939 -2370.221)" fill="url(#linear-gradient-16)"/>
          <g id="Group_25" data-name="Group 25">
            <g id="Group_23" data-name="Group 23" transform="translate(75.401)">
              <path id="Path_33" data-name="Path 33" d="M2868.024,2159.76s-2.983,8.571-3.411,11.314a.914.914,0,0,1-.825.77c-1.465.132-4.745-.061-7.7-3.67a1.9,1.9,0,0,1-.215-2.065l3.968-7.784Z" transform="translate(-2825.296 -2139.129)" fill="url(#linear-gradient-17)"/>
              <g id="Group_22" data-name="Group 22" transform="translate(31.673)">
                <path id="Path_34" data-name="Path 34" d="M2878.793,2017.135s-5.1,4.571-6.636,7.491-3.073,4.568.115,6.758a8.1,8.1,0,0,0,9.844-.462s4.582-3.465,4.888-5.6S2878.793,2017.135,2878.793,2017.135Z" transform="translate(-2870.405 -2010.434)" fill="url(#linear-gradient-18)"/>
                <path id="Path_35" data-name="Path 35" d="M2943.058,1959.213l-.158-.177a.523.523,0,0,1,.067-.76c.92-.72,2.863-2.448,1.864-3.515-1.288-1.376-6.983-5.531-7.318-8.38a4.56,4.56,0,0,1,4.191-4.967.262.262,0,0,1,.266.245l.02.34a.259.259,0,0,0,.455.154h0a.257.257,0,0,1,.451.133c.112.857.741,2.453,3.495,4.384,3.913,2.745,5.947,5.768,4.666,8.753a.259.259,0,0,0,.276.361c.4-.048.95.093,1.365.969.722,1.524-.929,3.864-4.467,4.792a.258.258,0,0,0-.161.383c.327.517.692,1.558-1.551,1.7a6.671,6.671,0,0,1-4.169-.909.258.258,0,0,1-.061-.37l1.76-2.334a.259.259,0,0,0-.1-.391Z" transform="translate(-2931.548 -1941.414)" fill="url(#linear-gradient-19)"/>
                <path id="Path_36" data-name="Path 36" d="M2993.218,2127.851s2.617-3.212,3.784-1.442-2.719,3.7-4.1,3.232Z" transform="translate(-2982.066 -2109.554)" fill="url(#linear-gradient-20)"/>
              </g>
              <path id="Path_37" data-name="Path 37" d="M2561.292,2243.612s-9.17-5.466-14.177-3.416-26.195,29.935-26.195,29.935l15.728,9.821S2572.528,2249.512,2561.292,2243.612Z" transform="translate(-2520.174 -2213.337)" fill="url(#linear-gradient-21)"/>
              <path id="Path_38" data-name="Path 38" d="M2512.518,2476.337a1.214,1.214,0,0,1,1.03-.905l2.668-.325a3.155,3.155,0,0,1,3.331,2,9.142,9.142,0,0,1,.6,2.814s7.7,2.244,14.295-.558a37.2,37.2,0,0,1-1.14,7.666,37.692,37.692,0,0,1-13.024-4.184l-7.287-5.218A1.214,1.214,0,0,1,2512.518,2476.337Z" transform="translate(-2512.48 -2427.859)" fill="url(#linear-gradient-22)"/>
              <path id="Path_39" data-name="Path 39" d="M2782.366,2290.089a12.217,12.217,0,0,1,1.245,12.579c-3.285,7.178-10.093,16.324-21.544,16.315l1.14-7.666S2782.765,2293.638,2782.366,2290.089Z" transform="translate(-2739.981 -2259.235)" fill="url(#linear-gradient-23)"/>
            </g>
            <g id="Group_24" data-name="Group 24" transform="translate(0 77.079)">
              <path id="Path_40" data-name="Path 40" d="M1661.474,2812.48c1.3,2.235,3.578,6.1,5.48,9.073a10.176,10.176,0,0,0,2.649,3.078q-.1.067-.186.123a.729.729,0,0,1-.962-.17,123.818,123.818,0,0,1-7.979-11.314.519.519,0,0,1,.394-.795A4.31,4.31,0,0,1,1661.474,2812.48Z" transform="translate(-1660.396 -2812.467)" fill="url(#linear-gradient-24)"/>
              <path id="Path_41" data-name="Path 41" d="M1678.051,2821.7c-1.9-2.972-4.18-6.837-5.48-9.072,4,.283,10.339,5.652,10.339,5.652l1.307,1.857a9.523,9.523,0,0,1-3.517,4.64A10.183,10.183,0,0,1,1678.051,2821.7Z" transform="translate(-1671.494 -2812.61)" fill="url(#linear-gradient-25)"/>
              <path id="Path_42" data-name="Path 42" d="M1782.35,2841.226l-3.561,2.246a.96.96,0,0,1-1.21-.151,3.735,3.735,0,0,1-.866-1.476,1.137,1.137,0,0,1,.275-1.128l2.925-2.956Z" transform="translate(-1766.375 -2835.522)" fill="url(#linear-gradient-26)"/>
            </g>
            <path id="Path_43" data-name="Path 43" d="M1797.383,2604.157c3.88-2.767,33.418-23.72,37.587-23.2,4.464.558,26.227.191,26.227.191l14.9,9.3s-3.981,7.432-24.228,2.968l-15.6-.77-36.2,15.952a.553.553,0,0,1-.694-.217l-2.144-3.49A.553.553,0,0,1,1797.383,2604.157Z" transform="translate(-1785.049 -2524.357)" fill="url(#linear-gradient-27)"/>
          </g>
          <path id="Path_44" data-name="Path 44" d="M2562.478,2436.66l.813-2.277a.194.194,0,0,1,.221-.124l1.189.245a.194.194,0,0,1,.14.262l-1,2.481a.194.194,0,0,1-.259.1l-1-.449A.194.194,0,0,1,2562.478,2436.66Z" transform="translate(-2482.642 -2390.643)" fill="#fff"/>
        </g>
        <path id="Path_45" data-name="Path 45" d="M2417.354,2497.346a6.289,6.289,0,0,1,4.485-1.306l45.467,4.042c.836.075,1.811.691,1.811,1.427v.744c0,.408-.537.8-.885,1.069a2.259,2.259,0,0,1-1.443.357l-41.515-4.023a4.184,4.184,0,0,0-3.054.9,3.081,3.081,0,0,0-1.152,2.6l1.148,13.29c-1.3,2.358-2.945,2.3-4.231,1.682a3.629,3.629,0,0,1-2.167-3.13l-.318-13.85A4.758,4.758,0,0,1,2417.354,2497.346Z" transform="translate(-2348.681 -2446.938)" fill="url(#linear-gradient-9)"/>
      </g>
      <g id="Group_31" data-name="Group 31" transform="translate(448.061 555.305)">
        <g id="Group_28" data-name="Group 28" transform="translate(52.723 30.69)">
          <path id="Path_46" data-name="Path 46" d="M1083.464,1653.078l-3.292.8a26.119,26.119,0,0,1-10.3,1.21c-9.049-.958-13.3-7.929-16.66-12.362-4.44-5.853-9.343-4.842-9.343-4.842l3,12.915c6.714,10.7,16.317,11.206,22.772,9.984a27.552,27.552,0,0,0,6.944-2.258C1084.143,1656.328,1083.464,1653.078,1083.464,1653.078Z" transform="translate(-1043.87 -1637.822)" fill="#91b3fa"/>
          <path id="Path_47" data-name="Path 47" d="M1455.2,1796.341a2.2,2.2,0,0,0-.891-1.687l-5.249-3.881s.107-.775,1.567-.94a1.822,1.822,0,0,0,1.536-1.733s-2.028.355-5.023.977a6.422,6.422,0,0,0-3.619,2.338l.993,2.377a27.717,27.717,0,0,0,10.731,3.711Z" transform="translate(-1408.157 -1774.802)" fill="url(#linear-gradient-29)"/>
        </g>
        <path id="Path_48" data-name="Path 48" d="M690.71,2580.4l26.057,1.008v-9.525l-22-2.015Z" transform="translate(-669.238 -2456.7)" fill="#7d97f4"/>
        <path id="Path_49" data-name="Path 49" d="M546.128,1302.73s-6.624,2.208-10.915,11.671c-1.173,2.587-7.544,3.046-8.2,8.354a6.091,6.091,0,0,1-5.1,5.353c-6.8,1.042-17.274,4.572-18.95,16.374-1.279,9.009,3.313,12.425,8.133,13.607a6.827,6.827,0,0,1,5.177,7.885c-.687,3.428.337,7.39,6.276,10.524,13.308,7.022,26.6-16.636,26.6-16.636l2.724-41.309Z" transform="translate(-497.908 -1301.692)" fill="url(#linear-gradient-30)"/>
        <path id="Path_50" data-name="Path 50" d="M457.5,3166.093l-.537,4.417a1.825,1.825,0,0,1-1.6,1.6,28.232,28.232,0,0,1-5.911.093,1.562,1.562,0,0,1-1.312-2.026,16.085,16.085,0,0,1,2.963-5.771H456A1.509,1.509,0,0,1,457.5,3166.093Z" transform="translate(-448.061 -2998.624)" fill="url(#linear-gradient-31)"/>
        <path id="Path_51" data-name="Path 51" d="M890.971,2598.8l.827,4.865s-2.77,28.052-3.262,39.274a8.792,8.792,0,0,0,1.3,5l4.816,7.82-12.239-7.222-.243-1.494,2-2.755-2.624-31.426a9.641,9.641,0,0,1,1.1-5.333l2.531-4.756Z" transform="translate(-843.16 -2483.074)" fill="url(#linear-gradient-32)"/>
        <path id="Path_52" data-name="Path 52" d="M892.274,3135.63h-3.906a2.352,2.352,0,0,1-1.866-.916c-1.218-1.582-3.74-4.668-4.947-4.749-1.624-.109-1.416,5.664-1.416,5.664h-.91l-1.153-7.174a4.245,4.245,0,0,1,2.228-4.438h0a6,6,0,0,0,2.384,3.959c2.013,1.214,8.191,5.563,8.191,5.563a5.585,5.585,0,0,1,1.587.042A1.033,1.033,0,0,1,892.274,3135.63Z" transform="translate(-839.975 -2961.814)" fill="url(#linear-gradient-33)"/>
        <path id="Path_53" data-name="Path 53" d="M496.783,2604.087s-16.224,30.776-18.8,37.8a67.5,67.5,0,0,0-3.517,13.443c-.054.867-1.133,1.7-4.107,1.7a2.853,2.853,0,0,1-2.654-1.211,1.734,1.734,0,0,1-.066-1.679c.939-1.9,3.917-7.969,5.02-10.722,1.317-3.287,4.15-18.183,5.7-23.362s3.31-10.8,10.075-15.972C488.435,2604.087,493.079,2599.537,496.783,2604.087Z" transform="translate(-465.735 -2486.049)" fill="url(#linear-gradient-34)"/>
        <path id="Path_54" data-name="Path 54" d="M848.65,1680.911c4.185-17.734-6.417-27.764-6.417-27.764,4.283-4.112,10.821-6.788,14.97-8.182a7.14,7.14,0,0,1,7.091,1.488c3.333,3.041,7.969,8.168,7.068,12.51-.809,3.9-8.175,23.365-8.175,23.365A16.185,16.185,0,0,1,848.65,1680.911Z" transform="translate(-807.353 -1613.301)" fill="url(#linear-gradient-35)"/>
        <path id="Path_55" data-name="Path 55" d="M708.6,2063.817c1.7-5.131,9.279-8.779,9.279-8.779a16.186,16.186,0,0,0,14.537,1.416,29.156,29.156,0,0,1,.473,11.266c-1.054,5.426-7.669,40.3-7.669,40.3-10.423,2.112-26.454-2.125-26.454-2.125C705.4,2094.108,706.893,2068.948,708.6,2063.817Z" transform="translate(-676.578 -1987.428)" fill="url(#linear-gradient-36)"/>
        <path id="Path_56" data-name="Path 56" d="M934.052,1488.244l-3.4,15.284c-.326,1.346.9,1.126,2.263.869,2.229-.42,5.1-1.286,6.062-3.02a1.647,1.647,0,0,0,.174-.576l1.462-10.6a1.9,1.9,0,0,0-1.115-2l-2.821-1.251A1.9,1.9,0,0,0,934.052,1488.244Z" transform="translate(-887.897 -1469.462)" fill="url(#linear-gradient-37)"/>
        <g id="Group_29" data-name="Group 29" transform="translate(39.943 0)">
          <path id="Path_57" data-name="Path 57" d="M956.99,1354s2.872,3.3,2.774,9.735-3.118,7.951-5.589,7.153a12.032,12.032,0,0,1-7.9-7.7C944.279,1358.015,953.171,1349.883,956.99,1354Z" transform="translate(-941.87 -1347.399)" fill="url(#linear-gradient-38)"/>
          <path id="Path_58" data-name="Path 58" d="M907.679,1305.19s1.014-8.989,7.842-5.76l1.05,1.9s4.566-3.025,1.471-7.049-8.7-4.692-13.128-.037-6.532,8.194-4.928,12.243,4.258,1.646,4.258,1.646-.37-3.234.916-4.239,1.987,1.31,1.987,1.31Z" transform="translate(-899.45 -1290.999)" fill="url(#linear-gradient-39)"/>
          <path id="Path_59" data-name="Path 59" d="M945.545,1415.427s.548-4.618-2.062-3.949-.285,4.374.694,5.684Z" transform="translate(-938.495 -1400.756)" fill="url(#linear-gradient-40)"/>
        </g>
        <path id="Path_60" data-name="Path 60" d="M598.968,1306.992a13.751,13.751,0,0,0-4.316,2.535,18.5,18.5,0,0,0-5.63,8.168,18.2,18.2,0,0,0-.636,2.423,23.537,23.537,0,0,1-.551,2.5,5.492,5.492,0,0,1-1.277,2.273,8.229,8.229,0,0,1-2.105,1.513c-.753.405-1.521.756-2.244,1.166a9.207,9.207,0,0,0-4.44,5.681c-.228.8-.4,1.636-.7,2.455a4.967,4.967,0,0,1-1.468,2.2,6.343,6.343,0,0,1-2.354,1.168,23.747,23.747,0,0,1-2.509.519,20.8,20.8,0,0,0-4.816,1.341,16.647,16.647,0,0,0-4.262,2.574,12.193,12.193,0,0,0-3.1,3.857,8.328,8.328,0,0,0-.873,4.8,7.178,7.178,0,0,0,2.17,4.331,5.365,5.365,0,0,0,2.114,1.217,5.624,5.624,0,0,0,2.453.114,4.857,4.857,0,0,0,3.8-2.867l.123.046a5.038,5.038,0,0,1-3.879,3.051,5.882,5.882,0,0,1-2.569-.069,5.672,5.672,0,0,1-2.264-1.242,7.477,7.477,0,0,1-2.318-4.529,8.725,8.725,0,0,1,.876-5.032,12.618,12.618,0,0,1,3.176-4.015,17.1,17.1,0,0,1,4.363-2.678,21.282,21.282,0,0,1,4.916-1.406,23.336,23.336,0,0,0,2.449-.523,5.811,5.811,0,0,0,2.148-1.077,4.565,4.565,0,0,0,1.314-1.966c.289-.766.468-1.589.707-2.411a9.7,9.7,0,0,1,4.715-5.946c.75-.418,1.523-.764,2.261-1.155a7.8,7.8,0,0,0,2.005-1.414,5.065,5.065,0,0,0,1.194-2.1,23.262,23.262,0,0,0,.557-2.448,18.593,18.593,0,0,1,.668-2.469,17.956,17.956,0,0,1,5.84-8.229,13.926,13.926,0,0,1,4.427-2.477Z" transform="translate(-547.578 -1305.462)" fill="#91b3fa"/>
        <path id="Path_61" data-name="Path 61" d="M620,1439.019a24.354,24.354,0,0,1-.319,3.264,9.094,9.094,0,0,1-1.1,3.129,6.253,6.253,0,0,1-1.063,1.313,11.083,11.083,0,0,1-1.315,1.03,25.9,25.9,0,0,0-2.609,1.909,9.6,9.6,0,0,0-3.394,5.187c-.485,2.05-.353,4.318-1.265,6.461a6.946,6.946,0,0,1-2.128,2.67,10.944,10.944,0,0,1-2.962,1.6,52.667,52.667,0,0,1-6.393,1.507,10.981,10.981,0,0,0-5.629,2.8,4.278,4.278,0,0,0-1.353,2.745,6.923,6.923,0,0,0,.957,3.027l-.116.062a6.762,6.762,0,0,1-1.143-3.088,3.546,3.546,0,0,1,.384-1.652,6.418,6.418,0,0,1,.942-1.4,11.46,11.46,0,0,1,5.808-3.108,63.96,63.96,0,0,0,6.292-1.57,10.228,10.228,0,0,0,2.751-1.513,6.213,6.213,0,0,0,1.883-2.4c.845-1.9.757-4.136,1.276-6.314a8.7,8.7,0,0,1,1.383-3.079,11.845,11.845,0,0,1,2.307-2.421,26.288,26.288,0,0,1,2.71-1.875,7.145,7.145,0,0,0,2.3-2.137,8.735,8.735,0,0,0,1.181-2.952,29.577,29.577,0,0,0,.482-3.214Z" transform="translate(-577.592 -1425.912)" fill="#91b3fa"/>
        <path id="Path_62" data-name="Path 62" d="M653.368,1663.177l-6.4-14.13c-2.729.7-8.474,8.318-8.474,8.318s5.543,22.916.071,29.021c-4.857,5.42-17.033,45.092-19.708,53.938a1.5,1.5,0,0,0,1.284,1.932l13.316,1.37a1.5,1.5,0,0,0,1.606-1.107l18.982-71.1A12.3,12.3,0,0,0,653.368,1663.177Z" transform="translate(-603.686 -1617.363)" fill="#91b3fa"/>
        <path id="Path_63" data-name="Path 63" d="M961.221,1654.184s2.25-7.758-7.952-15.235c0,0-4.4-3.35-4.92-1.2l3.632,17.4-11.275,76.9a1.5,1.5,0,0,0,1.851,1.676l2.775-.694a1.5,1.5,0,0,0,1.106-1.147c1.578-7.425,12.063-57.414,8.987-60.708C955.426,1671.176,961.471,1655.724,961.221,1654.184Z" transform="translate(-897.097 -1606.408)" fill="#91b3fa"/>
        <path id="Path_64" data-name="Path 64" d="M825.347,1743.052s-6.668,26.9,7.558,32.008,32.453-8,32.453-8,3.112-1.556,4.89-1.111,1.556-6.224-1.778-8-7.113,5.779-7.113,5.779-31.261,15.574-28.412-11.218C832.945,1752.506,834.6,1743.4,825.347,1743.052Z" transform="translate(-790.537 -1703.05)" fill="#bdd0fb"/>
        <g id="Group_30" data-name="Group 30" transform="translate(54.811 47.252)">
          <path id="Path_65" data-name="Path 65" d="M1067.495,1883.889l7.734-27.01a.787.787,0,0,1,.666-.567c1.4-.163,5.462-.623,10.15-1.019a115.193,115.193,0,0,1,16.124-.535.79.79,0,0,1,.646,1.137c-2.229,4.508-11.4,22.848-15.986,28.856a.793.793,0,0,1-.638.313l-17.945-.167A.791.791,0,0,1,1067.495,1883.889Z" transform="translate(-1067.464 -1852.011)" fill="url(#linear-gradient-41)"/>
          <path id="Path_66" data-name="Path 66" d="M1279.509,1825.926l5.607-.934a.4.4,0,0,1,.449.523l-.555,1.682a.4.4,0,0,1-.329.272l-5.4.721a.4.4,0,0,1-.445-.491l.344-1.469A.4.4,0,0,1,1279.509,1825.926Z" transform="translate(-1260.125 -1824.986)" fill="url(#linear-gradient-42)"/>
          <path id="Path_67" data-name="Path 67" d="M1238.961,1847.981l.462-2.406a.556.556,0,0,1,.49-.448l11.326-1.149a.556.556,0,0,1,.6.683l-.72,3a.557.557,0,0,1-.513.426l-11.068.557A.556.556,0,0,1,1238.961,1847.981Z" transform="translate(-1223.776 -1842.293)" fill="url(#linear-gradient-43)"/>
          <path id="Path_68" data-name="Path 68" d="M1081.245,2016.624s-1.078-4.43-.643-6,1.277-3.593,4.083-3.144a41.08,41.08,0,0,1,6.118,1.632,1.607,1.607,0,0,1-2.3,1.387l1.323,1.024s-.189,1.639-1.991.763l1.23,1.358a1.434,1.434,0,0,1-2.1.482C1085.64,2013.26,1085,2017.158,1081.245,2016.624Z" transform="translate(-1079.346 -1991.272)" fill="url(#linear-gradient-44)"/>
        </g>
        <path id="Path_69" data-name="Path 69" d="M918.615,1665.322c-1.235-3.938-7.493-16.276-7.493-16.276l-2.531,1.629,4.633,14.517a1.5,1.5,0,0,0,1.432,1.046.66.66,0,0,1,.658.617l.8,12.369S919.85,1669.26,918.615,1665.322Z" transform="translate(-867.839 -1617.363)" fill="url(#linear-gradient-45)"/>
        <path id="Path_70" data-name="Path 70" d="M1034.649,1632.081a2.185,2.185,0,0,0,.064-1.5l-3.852-12.1-2.363-1.888-.26,1.888,2.14,11.307-.757,20.606,4-11.067a2.186,2.186,0,0,0-.07-1.658l-.243-.528a2.186,2.186,0,0,1-.033-1.754Z" transform="translate(-976.897 -1587.778)" fill="url(#linear-gradient-46)"/>
      </g>
    </g>
  </g>
</svg>
