<svg xmlns="http://www.w3.org/2000/svg" width="355.14" height="356.801" viewBox="0 0 355.14 356.801">
  <g id="Group_33" data-name="Group 33" transform="translate(-29.43 -222.199)">
    <path id="Path_7" data-name="Path 7" d="M769.67,770.064a128.394,128.394,0,0,1-19.644,16.54c-64.083,45.98-139.91,32.577-156.026,29.3-23.8-4.833-69.8-14.176-103.055-53.286-50.315-59.17-42.48-152.39-3.452-213.926,7.139-11.256,44.848-73.729,121.492-83.748,46.384-6.063,100.453,6.165,139.608,38.97C830.784,572.777,824.933,711.885,769.67,770.064Z" transform="translate(-426.266 -241.252)" fill="#fff6f7"/>
    <g id="Group_146" data-name="Group 146" transform="translate(-1.082 238.448)">
      <g id="Group_34" data-name="Group 34" transform="translate(88.687 67.978)" opacity="0.65">
        <ellipse id="Ellipse_2" data-name="Ellipse 2" cx="111.739" cy="24.289" rx="111.739" ry="24.289" transform="translate(18.284 157.133) rotate(-17.853)" fill="#d7e2f2"/>
        <ellipse id="Ellipse_3" data-name="Ellipse 3" cx="95.19" cy="18.63" rx="95.19" ry="18.63" transform="translate(0 58.366) rotate(-17.853)" fill="#d7e2f2"/>
        <ellipse id="Ellipse_4" data-name="Ellipse 4" cx="47.617" cy="13.156" rx="47.617" ry="13.156" transform="translate(146.015 68.399) rotate(-17.853)" fill="#d7e2f2"/>
        <ellipse id="Ellipse_5" data-name="Ellipse 5" cx="25.368" cy="10.941" rx="25.368" ry="10.941" transform="matrix(0.93, -0.367, 0.367, 0.93, 16.582, 129.85)" fill="#d7e2f2"/>
        <ellipse id="Ellipse_6" data-name="Ellipse 6" cx="24.299" cy="7.545" rx="24.299" ry="7.545" transform="translate(45.065 25.341) rotate(-17.853)" fill="#d7e2f2"/>
        <ellipse id="Ellipse_7" data-name="Ellipse 7" cx="24.299" cy="7.545" rx="24.299" ry="7.545" transform="translate(40.115 96.426) rotate(-17.853)" fill="#d7e2f2"/>
      </g>
      <g id="Group_55" data-name="Group 55" transform="translate(232.722 108.551)">
        <g id="Group_36" data-name="Group 36" transform="translate(0.334 8.766)">
          <g id="Group_35" data-name="Group 35">
            <path id="Path_71" data-name="Path 71" d="M282.794,181.848a.188.188,0,0,1-.1-.047.183.183,0,0,1-.011-.258c.043-.047,3.922-4.828,7.356-17.06a141.608,141.608,0,0,0,4.418-22.892.183.183,0,0,1,.191-.173.176.176,0,0,1,.172.191,117.117,117.117,0,0,1-4.018,22.977c-3.461,12.329-7.808,17.157-7.852,17.2A.183.183,0,0,1,282.794,181.848Z" transform="translate(-282.632 -141.418)" fill="#2c8443"/>
          </g>
        </g>
        <g id="Group_38" data-name="Group 38" transform="translate(6.46 7.722)">
          <g id="Group_37" data-name="Group 37">
            <path id="Path_72" data-name="Path 72" d="M295.9,145.974s-1.094-3.606-2.732-5.12-3.8-1-1.582,2.637S295.761,147.194,295.9,145.974Z" transform="translate(-290.637 -140.055)" fill="#2c8443"/>
          </g>
        </g>
        <g id="Group_40" data-name="Group 40" transform="translate(5.085 15.755)">
          <g id="Group_39" data-name="Group 39">
            <path id="Path_73" data-name="Path 73" d="M294.145,157.06s-1.14-4.552-2.579-6-3.928.309-2.055,3.569,4.539,3.264,4.539,3.264Z" transform="translate(-288.839 -150.55)" fill="#6eaf45"/>
          </g>
        </g>
        <g id="Group_42" data-name="Group 42" transform="translate(9.91 17.921)">
          <g id="Group_41" data-name="Group 41">
            <path id="Path_74" data-name="Path 74" d="M295.373,159.938s3.351-5.185,5.156-6.148,3.076-.063,3.232.986-.82,2.38-3.368,4.038-4.613,1.857-5.061,1.486S295.373,159.938,295.373,159.938Z" transform="translate(-295.143 -153.381)" fill="#b9db5a"/>
          </g>
        </g>
        <g id="Group_44" data-name="Group 44" transform="translate(3.552 25.239)">
          <g id="Group_43" data-name="Group 43">
            <path id="Path_75" data-name="Path 75" d="M290.862,172.151a6.089,6.089,0,0,1-3.1-3.375c-.783-2.379-1.465-4.2-.315-5.465s3.218.892,3.33,3.929.129,4.5.129,4.5Z" transform="translate(-286.836 -162.942)" fill="#2c8443"/>
          </g>
        </g>
        <g id="Group_46" data-name="Group 46" transform="translate(8.062 27.362)">
          <g id="Group_45" data-name="Group 45">
            <path id="Path_76" data-name="Path 76" d="M292.729,170.956a35.011,35.011,0,0,1,4.685-4.346c1.652-1.026,3.286-1.3,4.114-.128s-.262,2.512-2.973,3.785A10.773,10.773,0,0,1,292.729,170.956Z" transform="translate(-292.729 -165.716)" fill="#2c8443"/>
          </g>
        </g>
        <g id="Group_48" data-name="Group 48" transform="translate(11.715 10.277)">
          <g id="Group_47" data-name="Group 47">
            <path id="Path_77" data-name="Path 77" d="M297.5,149.689a30.6,30.6,0,0,1,2.224-4.845c.911-1.274,2-1.9,2.875-1.091s.442,2.218-1.154,3.955A6.883,6.883,0,0,1,297.5,149.689Z" transform="translate(-297.502 -143.393)" fill="#6eaf45"/>
          </g>
        </g>
        <g id="Group_50" data-name="Group 50" transform="translate(5.646 36.52)">
          <g id="Group_49" data-name="Group 49">
            <path id="Path_78" data-name="Path 78" d="M289.608,180.8s4.776-3.328,7.317-3.108,3.242,3.919-1.247,4.119-6.106-.694-6.106-.694Z" transform="translate(-289.572 -177.681)" fill="#6eaf45"/>
          </g>
        </g>
        <g id="Group_52" data-name="Group 52" transform="translate(0 33.925)">
          <g id="Group_51" data-name="Group 51">
            <path id="Path_79" data-name="Path 79" d="M286.107,183.545a5.487,5.487,0,0,1-3.038-3.149c-.916-2.417-1.527-5.3.362-6.006s2.588,2.425,2.891,4.589a20.4,20.4,0,0,1,.04,4.471Z" transform="translate(-282.195 -174.291)" fill="#b9db5a"/>
          </g>
        </g>
        <g id="Group_54" data-name="Group 54" transform="translate(10.603)">
          <g id="Group_53" data-name="Group 53">
            <path id="Path_80" data-name="Path 80" d="M297.6,139.5a11.121,11.121,0,0,1-1.429-4.605c-.173-2.579-.48-4.809,1.531-4.931s1.77,3.072,1.431,5.231a20.389,20.389,0,0,1-1.263,4.29Z" transform="translate(-296.049 -129.965)" fill="#b9db5a"/>
          </g>
        </g>
      </g>
      <g id="Group_76" data-name="Group 76" transform="translate(142.871 100.092)">
        <g id="Group_57" data-name="Group 57" transform="translate(3.978 6.895)">
          <g id="Group_56" data-name="Group 56">
            <path id="Path_81" data-name="Path 81" d="M182,158.53a.14.14,0,0,0,.077-.043.142.142,0,0,0-.008-.2c-.037-.034-3.334-3.522-6.812-12.793a113,113,0,0,1-4.98-17.45.141.141,0,0,0-.159-.121.137.137,0,0,0-.122.159,91.351,91.351,0,0,0,4.643,17.575c3.505,9.344,7.2,12.8,7.237,12.839A.142.142,0,0,0,182,158.53Z" transform="translate(-169.993 -127.921)" fill="#2c8443"/>
          </g>
        </g>
        <g id="Group_59" data-name="Group 59" transform="translate(4.911 5.749)">
          <g id="Group_58" data-name="Group 58">
            <path id="Path_82" data-name="Path 82" d="M171.212,131.315a11.191,11.191,0,0,1,1.782-4.157c1.171-1.285,2.885-1.032,1.4,1.942S171.4,132.254,171.212,131.315Z" transform="translate(-171.212 -126.424)" fill="#2c8443"/>
          </g>
        </g>
        <g id="Group_61" data-name="Group 61" transform="translate(6.515 11.943)">
          <g id="Group_60" data-name="Group 60">
            <path id="Path_83" data-name="Path 83" d="M173.308,139.822s.584-3.611,1.606-4.829,3.071-.021,1.831,2.634a4.468,4.468,0,0,1-3.308,2.836Z" transform="translate(-173.308 -134.516)" fill="#6eaf45"/>
          </g>
        </g>
        <g id="Group_63" data-name="Group 63" transform="translate(0 14.291)">
          <g id="Group_62" data-name="Group 62">
            <path id="Path_84" data-name="Path 84" d="M171.652,142.244s-2.947-3.8-4.411-4.432-2.392.155-2.444.98.794,1.794,2.882,2.911,3.706,1.137,4.029.819S171.652,142.244,171.652,142.244Z" transform="translate(-164.795 -137.585)" fill="#b9db5a"/>
          </g>
        </g>
        <g id="Group_65" data-name="Group 65" transform="translate(9.241 19.194)">
          <g id="Group_64" data-name="Group 64">
            <path id="Path_85" data-name="Path 85" d="M177.136,151.32a4.746,4.746,0,0,0,2.182-2.826c.45-1.9.859-3.357-.117-4.264s-2.439.907-2.326,3.272.2,3.506.2,3.506Z" transform="translate(-176.869 -143.991)" fill="#2c8443"/>
          </g>
        </g>
        <g id="Group_67" data-name="Group 67" transform="translate(1.718 21.524)">
          <g id="Group_66" data-name="Group 66">
            <path id="Path_86" data-name="Path 86" d="M174.331,150.633a27.247,27.247,0,0,0-3.926-3.064c-1.35-.687-2.637-.791-3.2.174s.37,1.933,2.559,2.741A8.4,8.4,0,0,0,174.331,150.633Z" transform="translate(-167.04 -147.036)" fill="#2c8443"/>
          </g>
        </g>
        <g id="Group_69" data-name="Group 69" transform="translate(0.474 8.306)">
          <g id="Group_68" data-name="Group 68">
            <path id="Path_87" data-name="Path 87" d="M170.05,134.375A23.8,23.8,0,0,0,168,130.761c-.791-.929-1.677-1.341-2.305-.657s-.2,1.751,1.159,2.995A5.362,5.362,0,0,0,170.05,134.375Z" transform="translate(-165.414 -129.764)" fill="#6eaf45"/>
          </g>
        </g>
        <g id="Group_71" data-name="Group 71" transform="translate(3.996 28.464)">
          <g id="Group_70" data-name="Group 70">
            <path id="Path_88" data-name="Path 88" d="M177.344,158.066s-3.929-2.268-5.887-1.929-2.258,3.258,1.241,3.116,4.695-.944,4.695-.944Z" transform="translate(-170.016 -156.103)" fill="#6eaf45"/>
          </g>
        </g>
        <g id="Group_73" data-name="Group 73" transform="translate(12.448 25.727)">
          <g id="Group_72" data-name="Group 72">
            <path id="Path_89" data-name="Path 89" d="M181.544,159.859a4.273,4.273,0,0,0,2.151-2.646c.552-1.938.834-4.22-.679-4.639s-1.848,2.054-1.941,3.755a15.878,15.878,0,0,0,.266,3.475Z" transform="translate(-181.06 -152.526)" fill="#b9db5a"/>
          </g>
        </g>
        <g id="Group_75" data-name="Group 75" transform="translate(2.564)">
          <g id="Group_74" data-name="Group 74">
            <path id="Path_90" data-name="Path 90" d="M169.874,126.332a4.879,4.879,0,0,0,1.408-3.1c.212-2.62-.266-4.294-1.835-4.315s-1.42,2.558-1.078,4.226a11.168,11.168,0,0,0,1.293,3.191Z" transform="translate(-168.145 -118.912)" fill="#b9db5a"/>
          </g>
        </g>
      </g>
      <g id="Group_81" data-name="Group 81" transform="translate(291.297 261.244)">
        <g id="Group_78" data-name="Group 78" transform="translate(0 0)">
          <g id="Group_77" data-name="Group 77">
            <path id="Path_91" data-name="Path 91" d="M387.333,341.684s-.194-5.334-1.942-6.47a3.033,3.033,0,0,0-3.33,0s-.526-2.885-1.72-3.8-3.276,0-3.276,0-2.081-2.663-4.329-1.748a3.486,3.486,0,0,0-2.393,2.664s-1.769-1.166-2.768.416a5.3,5.3,0,0,0-1,2.468s-1.909-2.228-4.16-1.557a4.4,4.4,0,0,0-2.833,1.923l-.853,7.406Z" transform="translate(-358.73 -329.474)" fill="#4d9350"/>
          </g>
        </g>
        <g id="Group_80" data-name="Group 80" transform="translate(13.362 2.664)">
          <g id="Group_79" data-name="Group 79">
            <path id="Path_92" data-name="Path 92" d="M403.878,345.33s1.065-5.652-1.331-6.251-3.295,0-3.295,0,2.3-2.9,0-4.992-3.894-.9-4.692.5l-.8,1.4s-1.9-2.2-3.394-1.1a5.671,5.671,0,0,0-1.9,3.131s-1.5-1.741-2.3-.439l-.8,1.3s-.3-1.426-2.2-.863-2,1.125-2,1.125.865-1.988-2.063-1.125a3.767,3.767,0,0,0-2.929,3.427Z" transform="translate(-376.189 -332.954)" fill="#b9db5a"/>
          </g>
        </g>
      </g>
      <g id="Group_86" data-name="Group 86" transform="translate(85.067 262.674)">
        <g id="Group_83" data-name="Group 83" transform="translate(11.478 0)">
          <g id="Group_82" data-name="Group 82">
            <path id="Path_93" data-name="Path 93" d="M104.264,342.392s.176-4.827,1.758-5.856a2.747,2.747,0,0,1,3.014,0s.475-2.61,1.556-3.439,2.964,0,2.964,0,1.883-2.411,3.917-1.582a3.151,3.151,0,0,1,2.165,2.411s1.6-1.055,2.506.377a4.8,4.8,0,0,1,.9,2.233s1.727-2.016,3.764-1.409a3.984,3.984,0,0,1,2.565,1.74l.771,6.7Z" transform="translate(-104.264 -331.342)" fill="#4d9350"/>
          </g>
        </g>
        <g id="Group_85" data-name="Group 85" transform="translate(0 2.41)">
          <g id="Group_84" data-name="Group 84">
            <path id="Path_94" data-name="Path 94" d="M89.481,345.691s-.964-5.115,1.2-5.657,2.981,0,2.981,0-2.078-2.62,0-4.517,3.524-.814,4.247.452l.722,1.265s1.717-1.988,3.072-.994a5.137,5.137,0,0,1,1.717,2.833s1.355-1.576,2.078-.4l.722,1.178s.271-1.29,1.988-.781,1.807,1.018,1.807,1.018-.783-1.8,1.867-1.018a3.408,3.408,0,0,1,2.65,3.1Z" transform="translate(-89.267 -334.492)" fill="#b9db5a"/>
          </g>
        </g>
      </g>
      <g id="Group_97" data-name="Group 97" transform="translate(114.256 262.054)">
        <g id="Group_91" data-name="Group 91" transform="translate(0 0)">
          <g id="Group_88" data-name="Group 88" transform="translate(11.132)">
            <g id="Group_87" data-name="Group 87">
              <path id="Path_95" data-name="Path 95" d="M141.952,340.187s.171-4.218,1.705-5.116a2.9,2.9,0,0,1,2.923,0s.462-2.281,1.509-3,2.875,0,2.875,0,1.827-2.106,3.8-1.382,2.1,2.106,2.1,2.106,1.553-.922,2.43.329a3.936,3.936,0,0,1,.877,1.952s1.675-1.762,3.651-1.231a3.831,3.831,0,0,1,2.487,1.52l.749,5.856Z" transform="translate(-141.952 -330.533)" fill="#4d9350"/>
            </g>
          </g>
          <g id="Group_90" data-name="Group 90" transform="translate(0 2.106)">
            <g id="Group_89" data-name="Group 89">
              <path id="Path_96" data-name="Path 96" d="M127.613,343.069s-.935-4.468,1.168-4.942,2.892,0,2.892,0-2.016-2.289,0-3.947,3.417-.71,4.118.395l.7,1.105s1.665-1.737,2.979-.869a4.39,4.39,0,0,1,1.665,2.476s1.315-1.377,2.016-.347l.7,1.029s.263-1.127,1.928-.682,1.753.889,1.753.889-.76-1.571,1.811-.889a3.026,3.026,0,0,1,2.57,2.708Z" transform="translate(-127.406 -333.284)" fill="#b9db5a"/>
            </g>
          </g>
        </g>
        <g id="Group_96" data-name="Group 96" transform="translate(24.81 1.686)">
          <g id="Group_93" data-name="Group 93" transform="translate(9.156 1.467)">
            <g id="Group_92" data-name="Group 92">
              <path id="Path_97" data-name="Path 97" d="M171.786,339.923s.37-2.559,1.36-3.027a1.764,1.764,0,0,1,1.779.15s.425-1.365,1.108-1.752a2.239,2.239,0,0,1,1.75.147s1.244-1.189,2.4-.647,1.146,1.389,1.146,1.389,1-.481,1.459.324a2.365,2.365,0,0,1,.41,1.233,2.578,2.578,0,0,1,2.3-.563,2.278,2.278,0,0,1,1.418,1.052l.086,3.6Z" transform="translate(-171.786 -334.653)" fill="#4d9350"/>
            </g>
          </g>
          <g id="Group_95" data-name="Group 95">
            <g id="Group_94" data-name="Group 94">
              <path id="Path_98" data-name="Path 98" d="M159.859,340.337s-.386-3.725,1.377-3.968a3.515,3.515,0,0,1,2.369.2s-1.457-2.014.334-3.234,2.861-.347,3.341.607l.481.954s1.512-1.308,2.515-.506a3.524,3.524,0,0,1,1.154,2.142s1.193-1.037,1.681-.145l.487.892s.311-.905,1.638-.426,1.36.85,1.36.85-.489-1.34,1.56-.6a2.432,2.432,0,0,1,1.876,2.4Z" transform="translate(-159.823 -332.736)" fill="#b9db5a"/>
            </g>
          </g>
        </g>
      </g>
      <g id="Group_108" data-name="Group 108" transform="translate(253.77 262.054)">
        <g id="Group_102" data-name="Group 102" transform="translate(12.944 0)">
          <g id="Group_99" data-name="Group 99">
            <g id="Group_98" data-name="Group 98">
              <path id="Path_99" data-name="Path 99" d="M351.714,340.187s-.171-4.218-1.705-5.116a2.9,2.9,0,0,0-2.923,0s-.461-2.281-1.509-3-2.875,0-2.875,0-1.827-2.106-3.8-1.382-2.1,2.106-2.1,2.106-1.553-.922-2.43.329a3.938,3.938,0,0,0-.876,1.952s-1.675-1.762-3.651-1.231a3.831,3.831,0,0,0-2.487,1.52l-.748,5.856Z" transform="translate(-326.61 -330.533)" fill="#4d9350"/>
            </g>
          </g>
          <g id="Group_101" data-name="Group 101" transform="translate(11.727 2.106)">
            <g id="Group_100" data-name="Group 100">
              <path id="Path_100" data-name="Path 100" d="M366.236,343.069s.934-4.468-1.169-4.942-2.891,0-2.891,0,2.015-2.289,0-3.947-3.418-.71-4.119.395l-.7,1.105s-1.665-1.737-2.979-.869a4.391,4.391,0,0,0-1.665,2.476s-1.314-1.377-2.015-.347l-.7,1.029s-.263-1.127-1.928-.682-1.753.889-1.753.889.759-1.571-1.812-.889a3.026,3.026,0,0,0-2.57,2.708Z" transform="translate(-341.933 -333.284)" fill="#b9db5a"/>
            </g>
          </g>
        </g>
        <g id="Group_107" data-name="Group 107" transform="translate(0 1.686)">
          <g id="Group_104" data-name="Group 104" transform="translate(0 1.467)">
            <g id="Group_103" data-name="Group 103">
              <path id="Path_101" data-name="Path 101" d="M324.913,339.923s-.37-2.559-1.361-3.027a1.764,1.764,0,0,0-1.779.15s-.425-1.365-1.108-1.752a2.237,2.237,0,0,0-1.75.147s-1.245-1.189-2.4-.647-1.146,1.389-1.146,1.389-1-.481-1.458.324a2.363,2.363,0,0,0-.411,1.233,2.577,2.577,0,0,0-2.3-.563,2.281,2.281,0,0,0-1.418,1.052l-.086,3.6Z" transform="translate(-309.697 -334.653)" fill="#4d9350"/>
            </g>
          </g>
          <g id="Group_106" data-name="Group 106" transform="translate(4.158)">
            <g id="Group_105" data-name="Group 105">
              <path id="Path_102" data-name="Path 102" d="M335.307,340.337s.386-3.725-1.377-3.968a3.515,3.515,0,0,0-2.369.2s1.457-2.014-.334-3.234-2.86-.347-3.341.607l-.481.954s-1.512-1.308-2.515-.506a3.524,3.524,0,0,0-1.154,2.142s-1.194-1.037-1.681-.145l-.488.892s-.311-.905-1.637-.426-1.361.85-1.361.85.489-1.34-1.559-.6a2.433,2.433,0,0,0-1.877,2.4Z" transform="translate(-315.13 -332.736)" fill="#b9db5a"/>
            </g>
          </g>
        </g>
      </g>
      <g id="Group_109" data-name="Group 109" transform="translate(71.366 267.999)">
        <ellipse id="Ellipse_8" data-name="Ellipse 8" cx="136.716" cy="8.797" rx="136.716" ry="8.797" fill="#d7e2f2"/>
        <ellipse id="Ellipse_9" data-name="Ellipse 9" cx="107.806" cy="4.127" rx="107.806" ry="4.127" transform="translate(27.438 4.792)" fill="#8fb0d8" opacity="0.63"/>
      </g>
      <g id="Group_110" data-name="Group 110" transform="translate(95.577 274.252)">
        <path id="Path_103" data-name="Path 103" d="M143.308,348.17c0,.938-9.023,1.7-20.154,1.7S103,349.108,103,348.17s9.023-1.7,20.154-1.7S143.308,347.232,143.308,348.17Z" transform="translate(-103 -346.471)" fill="#4f7faf"/>
        <path id="Path_104" data-name="Path 104" d="M314.468,351.992c0,.938-9.023,1.7-20.154,1.7s-20.154-.761-20.154-1.7,9.023-1.7,20.154-1.7S314.468,351.053,314.468,351.992Z" transform="translate(-143.164 -347.368)" fill="#4f7faf"/>
        <path id="Path_105" data-name="Path 105" d="M382.135,351.992c0,.938-9.023,1.7-20.154,1.7s-20.154-.761-20.154-1.7,9.023-1.7,20.154-1.7S382.135,351.053,382.135,351.992Z" transform="translate(-159.043 -347.368)" fill="#4f7faf"/>
      </g>
      <g id="Group_120" data-name="Group 120" transform="translate(98.794 170.614)">
        <path id="Path_106" data-name="Path 106" d="M116.343,345.159a38.9,38.9,0,0,1-7.5-2.7c-.918-.507.051-2.03.629-2.866a1.6,1.6,0,0,0,.115-.191,12.406,12.406,0,0,0,.688-3.293l3.781,1.356s-.281,2.42.7,3.514a.708.708,0,0,0,.073.083c1.066,1.052,3.249,2.046,3.817,3.124S118.184,345.412,116.343,345.159Z" transform="translate(-107.499 -240.401)" fill="#f48e76"/>
        <g id="Group_112" data-name="Group 112" transform="translate(0.963 99.003)">
          <g id="Group_111" data-name="Group 111">
            <path id="Path_107" data-name="Path 107" d="M116.343,346.169a38.9,38.9,0,0,1-7.5-2.7c-.918-.507.051-2.03.629-2.866a1.6,1.6,0,0,0,.115-.191,7.426,7.426,0,0,0,2.758,2.074c1.113.344,1.467-.393,2.414-.5a.709.709,0,0,0,.073.083c1.066,1.052,3.249,2.046,3.817,3.124S118.184,346.422,116.343,346.169Z" transform="translate(-108.461 -340.414)" fill="#2f2159"/>
          </g>
        </g>
        <path id="Path_108" data-name="Path 108" d="M138.054,346.43a38.889,38.889,0,0,1-7.944-.674c-1.018-.253-.475-1.975-.13-2.931a1.752,1.752,0,0,0,.061-.214,12.391,12.391,0,0,0-.184-3.36l4,.337s.352,2.411,1.584,3.214a.637.637,0,0,0,.092.061c1.3.742,3.666,1.14,4.493,2.036S139.9,346.2,138.054,346.43Z" transform="translate(-112.441 -241.138)" fill="#f48e76"/>
        <g id="Group_113" data-name="Group 113" transform="translate(17.082 101.473)">
          <path id="Path_109" data-name="Path 109" d="M138.054,347.46a38.889,38.889,0,0,1-7.944-.674c-1.018-.253-.475-1.975-.13-2.931a1.752,1.752,0,0,0,.061-.214,7.428,7.428,0,0,0,3.2,1.293c1.163.046,1.316-.758,2.2-1.1a.637.637,0,0,0,.092.061c1.3.742,3.666,1.14,4.493,2.036S139.9,347.23,138.054,347.46Z" transform="translate(-129.523 -343.641)" fill="#2f2159"/>
        </g>
        <g id="Group_114" data-name="Group 114" transform="translate(1.927 43.36)">
          <path id="Path_110" data-name="Path 110" d="M131.112,322.838a2.765,2.765,0,0,1-.13.888c-.475.329-5.648.911-6.268-.436-.62-1.332,0-22.1,0-22.815,0-.689-2.48-21.192-2.671-21.192l-.008.054c-.046,1.24.482,16.6.237,17.695s-6.069,25.31-6.743,25.547-2.916-.237-4.3-.765a1.969,1.969,0,0,1-1.485-1.967c.1-.283,6.023-21.858,6.023-22.861s-2.1-14.541-2.174-20.519.367-7.653.367-7.653l13.96-1.1s2.059,10.86,2.441,14.013,1,8.518,1.049,11.289C131.448,295.508,131.456,318.063,131.112,322.838Z" transform="translate(-109.722 -267.711)" fill="#3d237c"/>
        </g>
        <g id="Group_115" data-name="Group 115" transform="translate(14.248 50.692)">
          <path id="Path_111" data-name="Path 111" d="M134.889,325.087a2.765,2.765,0,0,1-.13.888c-.475.329-5.648.911-6.268-.436-.62-1.332,0-22.1,0-22.815,0-.689-2.48-21.192-2.671-21.192l.39-4.24s1.531,9.253,2.174,12.628,1.27,7.784,2.036,8.87.191,3.827,0,6.314-1.492,16.263.39,18.751C131.721,325.064,133.4,325.232,134.889,325.087Z" transform="translate(-125.82 -277.291)" fill="#2f2159"/>
        </g>
        <g id="Group_116" data-name="Group 116" transform="translate(4.271 5.397)">
          <path id="Path_112" data-name="Path 112" d="M125.354,218.347s-5.038-.83-7.079.605-1.913,5.9-1.913,7.494a3.239,3.239,0,0,1-2.2,3.412c-1.69.7-1.977,4.138,0,5.306s12.565,1.678,14.191-.395a4.515,4.515,0,0,0,0-5.9c-1.276-1.339-1.658-1.945-.8-4.656S127.3,218.825,125.354,218.347Z" transform="translate(-112.784 -218.108)" fill="#393944"/>
        </g>
        <path id="Path_113" data-name="Path 113" d="M119.47,234.583a4.943,4.943,0,0,0,1.913-1.911c.454-1.1-.168-2.774,0-4.353a8.459,8.459,0,0,1,1.076-3.563c.406-.526.789-.6,1.746-.98s.622-.957,1.363-1.172a3.547,3.547,0,0,1,1.938.358s.167,4.832-.407,6.41S125.543,231,125.543,231a4.031,4.031,0,0,0,.263,2.177,3.7,3.7,0,0,0,1.339,1.554s-.223,2.743-2.2,3.03S119.383,236.064,119.47,234.583Z" transform="translate(-110.082 -213.754)" fill="#f48e76"/>
        <path id="Path_114" data-name="Path 114" d="M164,244.532s-.329.245-.735.5a5.035,5.035,0,0,1-.987.505c-.674.214-2.656.765-2.656.765l-1.217-1.6a.883.883,0,0,1,.115-.054,6,6,0,0,0,1.9-1.332,10.226,10.226,0,0,0,.926-1.959,1.8,1.8,0,0,1,.276-.429,2.1,2.1,0,0,1,.344-.337Z" transform="translate(-119.22 -217.987)" fill="#f48e76"/>
        <path id="Path_115" data-name="Path 115" d="M114.942,277.16a6.591,6.591,0,0,0,.765,4.082c1.117,1.562,2.839,1.818,2.774.7s-1.786-3.061-.892-2.774,1.31.032.895-.7a10.931,10.931,0,0,0-1.716-1.882Z" transform="translate(-109.007 -226.433)" fill="#f48e76"/>
        <g id="Group_117" data-name="Group 117" transform="translate(0 20.66)">
          <path id="Path_116" data-name="Path 116" d="M146.019,243.47c-.612.666-9.092,6.789-9.636,6.7s-6.98-9.888-8.128-10.523a21.189,21.189,0,0,0-3.987-1.278,6.058,6.058,0,0,1-3.635,1.531,6.792,6.792,0,0,1-4.041-1.676.588.588,0,0,0-.674-.115c-.429.161-4.087,1.531-4.47,2.151s-4.5,13.776-4.232,15.207,4.232,12.919,4.783,13.256,3.467-.628,3.513-1.293a52.545,52.545,0,0,0-1.485-5.112.024.024,0,0,1-.008-.015,29.313,29.313,0,0,0,8.4,1c3.857-.122,5.618-.635,5.732-1.523a.212.212,0,0,0,.008-.069c.031-.926-.765-2.839-.6-4.37s.452-4.944.957-5.679c.4-.566.122-1.975-.145-2.862a.111.111,0,0,0-.015-.054,5.648,5.648,0,0,0-.191-.559c-.107-.253-.23-.528-.337-.75-.046-.107-.084-.2-.122-.276a.765.765,0,0,0-.084-.161.109.109,0,0,0-.015-.046c0-.008-.008-.015-.008-.023.23.306,4.7,6.322,6.375,7.255,1.722.957,2.3.8,3.375.314a81.247,81.247,0,0,0,8.8-5.8c1.913-1.561,2.265-2.235,2.265-2.74S146.624,242.8,146.019,243.47Zm-34.127,11.855c.038-.551.834-3.949,1.248-5.579a6.7,6.7,0,0,1,.98-2.311c-.023.092-.138.475-.26.995a.227.227,0,0,0-.015.077,12.131,12.131,0,0,0-.383,2.617c0,1.531.505,3.214.475,5.166a35.792,35.792,0,0,1-.566,3.964C112.581,257.774,111.885,255.562,111.892,255.325Z" transform="translate(-107.204 -238.051)" fill="#59c69c"/>
        </g>
        <g id="Group_118" data-name="Group 118" transform="translate(6.166 29.607)">
          <path id="Path_117" data-name="Path 117" d="M117.066,263c.245.934.674,1.691,5.556,2.028a32.446,32.446,0,0,0,7.416-.505c-.115.888-1.875,1.4-5.732,1.523a29.313,29.313,0,0,1-8.4-1L115.26,263a35.792,35.792,0,0,0,.566-3.964c.031-1.952-.475-3.635-.475-5.166a12.131,12.131,0,0,1,.383-2.617.227.227,0,0,1,.015-.077c.191-.673.36-1.148.406-1.27-.031.329-.291,2.9.291,3.834.62,1,12.008,1.577,12.965.1.85-1.324.23-3.612.092-4.095a.766.766,0,0,1,.084.161c.031.077.077.168.122.276.138.329.329.781.528,1.309a.111.111,0,0,1,.015.054c.268.888.543,2.3.145,2.862-.505.735-.8,4.148-.957,5.679a4.7,4.7,0,0,0-1.462-2.036c-1.01-.719-9.33.329-10.286.329S116.829,262.055,117.066,263Z" transform="translate(-115.26 -249.741)" fill="#3b9e90"/>
        </g>
        <g id="Group_119" data-name="Group 119" transform="translate(9.284 22.454)" opacity="0.64">
          <path id="Path_118" data-name="Path 118" d="M119.334,241.173a6.513,6.513,0,0,0,4.209,4.018c3.126.765,5.23-2.552,4.848-3.508s-1.467-.51-2.807-.127S119.334,239.069,119.334,241.173Z" transform="translate(-119.334 -240.394)" fill="#8fe07c"/>
        </g>
        <path id="Path_119" data-name="Path 119" d="M126.734,233.4a9.825,9.825,0,0,1-1.627-.383l-.565-.223s1.148,2.455,1.4,2.3A7.063,7.063,0,0,0,126.734,233.4Z" transform="translate(-111.272 -216.157)" fill="#c65252" opacity="0.73"/>
        <path id="Path_120" data-name="Path 120" d="M164.973,244.532s-.329.245-.735.5a5.375,5.375,0,0,1-1.408-1.446,5.161,5.161,0,0,1-.237-2.656,2.1,2.1,0,0,1,.344-.337Z" transform="translate(-120.188 -217.987)" fill="#c65252" opacity="0.47"/>
        <path id="Path_121" data-name="Path 121" d="M196.639,267.325a12.828,12.828,0,0,1-4.685-.892c-3.518-1.369-9.575-5.367-15.066-12.132-4.92-6.063-11.061-14.289-13.69-19-2.033-3.641-1.388-7.067-.7-10.693.176-.937.359-1.906.5-2.9.645-4.6-1.267-10.226-1.285-10.282l1.084-.373c.083.241,2.02,5.951,1.338,10.816-.142,1.016-.328,2-.507,2.948-.672,3.565-1.251,6.643.578,9.921,2.6,4.65,8.69,12.812,13.579,18.836,5.006,6.168,10.936,10.363,14.591,11.785s7.525.974,11.827-1.371c4.813-2.625,9.1-6.459,10.842-8.888a21.52,21.52,0,0,0,2.657-5.628l1.1.318a22.292,22.292,0,0,1-2.828,5.98c-1.82,2.535-6.26,6.518-11.224,9.226A16.934,16.934,0,0,1,196.639,267.325Z" transform="translate(-119.993 -211.056)" fill="#ed4357"/>
        <path id="Path_122" data-name="Path 122" d="M164,240.243a3.457,3.457,0,0,1,2.033,1.626,1.77,1.77,0,0,1-1.22,2.415c-.55,0-1.507-1.124-1.531-1.89s1.124-1.291,1.124-1.291Z" transform="translate(-120.363 -217.905)" fill="#f48e76"/>
      </g>
      <g id="Group_121" data-name="Group 121" transform="translate(117.847 139.945)">
        <path id="Path_123" data-name="Path 123" d="M155.3,202.987c-13.153-3.278-28.143-14.467-21.63-23.266s14.991.328,14.991.328,2.294-12.236,12.5-8.277S164.669,193.191,155.3,202.987Z" transform="translate(-132.098 -170.984)" fill="#ed4357"/>
        <path id="Path_124" data-name="Path 124" d="M159.35,188.671l-3.229.934-.934-3.229a.689.689,0,0,0-.854-.471l-2.815.815a.689.689,0,0,0-.471.853l.934,3.23-3.229.934a.689.689,0,0,0-.471.854l.814,2.815a.69.69,0,0,0,.854.471l3.229-.934.935,3.229a.69.69,0,0,0,.854.471l2.815-.815a.69.69,0,0,0,.471-.854l-.934-3.229,3.229-.934a.69.69,0,0,0,.471-.854l-.815-2.815A.689.689,0,0,0,159.35,188.671Z" transform="translate(-135.889 -174.479)" fill="#fff"/>
      </g>
      <g id="Group_122" data-name="Group 122" transform="translate(256.818 131.222)">
        <path id="Path_125" data-name="Path 125" d="M329.035,190.76c12.291-5.716,24.884-19.547,16.82-26.949s-14.656,3.167-14.656,3.167-4.576-11.578-13.844-5.753S317.978,182.919,329.035,190.76Z" transform="translate(-313.679 -159.586)" fill="#ed4357"/>
        <path id="Path_126" data-name="Path 126" d="M328.682,176.406l3.348.3.3-3.348a.69.69,0,0,1,.749-.625L336,173a.69.69,0,0,1,.625.749l-.3,3.348,3.348.3a.689.689,0,0,1,.625.749l-.266,2.918a.69.69,0,0,1-.749.625l-3.348-.3-.3,3.348a.69.69,0,0,1-.749.625l-2.918-.266a.69.69,0,0,1-.625-.749l.3-3.348-3.348-.3a.69.69,0,0,1-.625-.749l.266-2.918A.69.69,0,0,1,328.682,176.406Z" transform="translate(-316.961 -162.672)" fill="#fff"/>
      </g>
      <g id="Group_129" data-name="Group 129" transform="translate(198.072 158.194)">
        <path id="Path_127" data-name="Path 127" d="M271.974,290.1a16.779,16.779,0,0,1-2.024-.122c-8.676-1.058-14.016-6.26-18.342-11.053a64.381,64.381,0,0,1-11.629-19.863,85.985,85.985,0,0,1-3.058-14.513l1.141-.133a84.6,84.6,0,0,0,3,14.28,63.073,63.073,0,0,0,11.394,19.46c4.186,4.639,9.346,9.673,17.629,10.683,8.134.987,15.542-4.634,19.423-9.752,2.221-2.93,5.182-16.676,7.8-28.8,2.2-10.236,4.287-19.9,5.872-23.128,1.41-2.871,2.309-4.4,2.965-5.516a15.722,15.722,0,0,0,2.1-5.05,55.2,55.2,0,0,0,1.83-14.584c0-5.262,1.055-7.1,1.1-7.18l.988.585c-.006.011-.94,1.719-.94,6.595a56.328,56.328,0,0,1-1.87,14.883,16.788,16.788,0,0,1-2.216,5.332c-.647,1.1-1.534,2.608-2.924,5.441-1.522,3.1-3.591,12.7-5.78,22.862-2.767,12.843-5.628,26.123-8,29.257C286.683,284.721,279.769,290.1,271.974,290.1Z" transform="translate(-236.921 -194.829)" fill="#ed4357"/>
        <path id="Path_128" data-name="Path 128" d="M351.481,244.328s-1.393.6-3.176,1.293c-2.6,1.033-6.054,2.288-7.248,2.25-2.013-.061-4.049-2.9-6.062-6.957s-4.531-10.332-4.814-10.837-1.722-.987-1.722-.987l2.074-4.209a27.815,27.815,0,0,1,1.653,2.87c.222.635,2.679,4.179,3.735,6.153s5.067,8.993,5.579,9.307c.375.237,4.232-1.814,6.314-2.939.781-.429,1.309-.727,1.309-.727Z" transform="translate(-258.401 -201.881)" fill="#f48e76"/>
        <path id="Path_129" data-name="Path 129" d="M357.416,248.824s-1.393.6-3.176,1.293l-.49-5.35c.781-.429,1.309-.727,1.309-.727Z" transform="translate(-264.336 -206.377)" fill="#c65252" opacity="0.63"/>
        <g id="Group_123" data-name="Group 123" transform="translate(100.175 16.971)">
          <path id="Path_130" data-name="Path 130" d="M369.071,221.053s-1.435,0-1.244-1.945.861-2.1,4.082-2.1,5.676.383,6.282,3.381-.606,5.6-1.244,5.843-4-.869-4.76-2.017A23.268,23.268,0,0,0,369.071,221.053Z" transform="translate(-367.81 -217.003)" fill="#5b3939"/>
        </g>
        <path id="Path_131" data-name="Path 131" d="M369.453,222.253s-.183,5.15.726,6.513a3.291,3.291,0,0,0,2.392,1.435,5.686,5.686,0,0,1-.526,2.44,2.827,2.827,0,0,1-1.435,1.076s-1.172,2.152,1.2,2.464,3.372.5,4.209-.311a7.538,7.538,0,0,0,1.316-2.92,7,7,0,0,1-.383-2.6,21.749,21.749,0,0,1,.383-2.918s-.909-.191-.909-.646.814-.837.909-1.339-.215-1.793-.622-1.482-.813,1.244-1.1.693-.168-2.073-1.2-2.4S370.235,222.293,369.453,222.253Z" transform="translate(-268.017 -201.232)" fill="#f48e76"/>
        <g id="Group_124" data-name="Group 124" transform="translate(103.858 112.487)">
          <path id="Path_132" data-name="Path 132" d="M383.363,341.8a6.714,6.714,0,0,0,.959,2.656c.667.74,1.241,3.251.763,3.706s-4.688,1.889-7.8,1.913-4.449-.048-4.64-.981.693-1.7,2.224-1.984a10.189,10.189,0,0,0,4.07-1.6c.618-.6.164-2.87.164-2.87Z" transform="translate(-372.622 -341.805)" fill="#2f2159"/>
        </g>
        <g id="Group_126" data-name="Group 126" transform="translate(88.318 113.358)">
          <g id="Group_125" data-name="Group 125">
            <path id="Path_133" data-name="Path 133" d="M364,342.943a6.727,6.727,0,0,0,.553,2.77c.55.83.744,3.4.2,3.777s-4.917,1.171-7.995.732-4.392-.709-4.442-1.66.938-1.576,2.495-1.632a10.2,10.2,0,0,0,4.262-.98c.7-.5.589-2.813.589-2.813Z" transform="translate(-352.318 -342.943)" fill="#2f2159"/>
          </g>
        </g>
        <g id="Group_127" data-name="Group 127" transform="translate(94.893 60.324)">
          <path id="Path_134" data-name="Path 134" d="M381.551,326.7c-.337.666-6.505,1.676-6.7,1.385-.184-.283-3.964-26.642-3.964-27.835s-.245-14.779-.337-13.73c-.008.13-.054.543-.107,1.194-.444,4.661-2.028,21.177-2.235,24.208-.245,3.444-1.1,15.789-1.339,16.218s-5.84.52-5.931-.191c-.015-.092-.023-.6-.023-1.424-.015-5.48.184-24.713.36-25.8.184-1.24,2.679-26.642,2.679-26.642s12.819-.9,13.34-.092,1.913,2.4,1.913,2.4a14.1,14.1,0,0,1,.4,4.286c-.161,2.35-1.11,20.236-1.11,21.43S381.88,326.03,381.551,326.7Z" transform="translate(-360.909 -273.649)" fill="#3d237c"/>
        </g>
        <g id="Group_128" data-name="Group 128" transform="translate(94.894 70.887)">
          <path id="Path_135" data-name="Path 135" d="M370.438,290.948c-.444,4.661-2.028,21.177-2.235,24.208-.245,3.444-1.1,15.789-1.339,16.218s-5.84.52-5.931-.191c-.015-.092-.023-.6-.023-1.424,1.661-.084,3.5-.528,3.9-2.02.765-2.878,2.3-18.085,1.722-19.516s1.049-1.822,1.431-4.791,2.143-18.269,2.4-15.689C370.393,288.132,370.423,289.28,370.438,290.948Z" transform="translate(-360.91 -287.45)" fill="#2f2159"/>
        </g>
        <path id="Path_136" data-name="Path 136" d="M383,248.9c-.092.528-4.737,1.194-4.959,1.148-.207-.046-.612-.857-.673-.987a.024.024,0,0,1-.008-.015s.046,2.1-.046,4.875.857,11.48.712,12.008-3.972.145-6.452.145c-2.495,0-7.9.383-8.71.383-.7,0-1.156-.214-1.232-1.691-.015-.237-.015-.52-.008-.842.046-2.2.6-16.493.482-18,0-.038-.008-.061-.008-.084-.145-.9-4.546,2.013-5.067,2.013-.13,0-.375-.329-.658-.819a29.015,29.015,0,0,1-2.12-4.829c-.046-.528,5.74-3.589,6.7-4.3s6.505-1.056,6.505-1.056a1.983,1.983,0,0,0,2.587,1.867,6.1,6.1,0,0,0,3.727-2.441s6.551,2.25,7.271,3.061S383.1,248.379,383,248.9Z" transform="translate(-264.453 -204.554)" fill="#ccdced"/>
        <path id="Path_137" data-name="Path 137" d="M380.284,268.378c-.145.528-3.972.145-6.452.145-2.495,0-7.9.383-8.71.383-.7,0-1.156-.214-1.232-1.691a22.534,22.534,0,0,0,8.564-1.5c5.618-2.3,4.209-7.653,5.1-9.949s.827-9.054.827-9.054l1.232,4.783s.046,2.1-.046,4.875S380.429,267.85,380.284,268.378Z" transform="translate(-266.715 -207.004)" fill="#a3bed6"/>
        <path id="Path_138" data-name="Path 138" d="M388.858,253.2s1.291,5.895,1.052,7.138-4.664,8.538-5.094,9.28a21.01,21.01,0,0,0-1.077,2.87,18,18,0,0,1-1.482-1.459l-.792-.873s1.557-2.333,1.988-2.93.837-3.014,1.579-4.5a15.549,15.549,0,0,0,1.22-2.7c0-.24-1.342-6.041-1.342-6.041Z" transform="translate(-270.84 -208.526)" fill="#f48e76"/>
        <path id="Path_139" data-name="Path 139" d="M362.752,248.064c0-.038-.008-.061-.008-.084-.145-.9-4.546,2.013-5.067,2.013-.13,0-.375-.329-.658-.819a26.457,26.457,0,0,0,3.72-1.24c1.049-.574,2.151-3.352,2.242-2.3A13.109,13.109,0,0,1,362.752,248.064Z" transform="translate(-265.103 -206.696)" fill="#a3bed6"/>
        <path id="Path_140" data-name="Path 140" d="M373.531,232.4a7.359,7.359,0,0,0,1.89-.327,12.252,12.252,0,0,0,1.084-.592s-2.328,3.749-2.615,3.271A8.724,8.724,0,0,1,373.531,232.4Z" transform="translate(-268.978 -203.429)" fill="#c65252"/>
        <path id="Path_141" data-name="Path 141" d="M328.866,224.332s-1.746.622-2.033,2.009-.144,2.846.646,2.057S329.823,224.069,328.866,224.332Z" transform="translate(-257.988 -201.749)" fill="#f48e76"/>
      </g>
      <g id="Group_144" data-name="Group 144" transform="translate(199.493 174.779)">
        <path id="Path_142" data-name="Path 142" d="M308.545,350.708a38.886,38.886,0,0,0,7.91-1c1.006-.294.393-1.992.01-2.934a1.856,1.856,0,0,1-.07-.211,12.388,12.388,0,0,1,.046-3.364l-3.985.5s-.253,2.423-1.452,3.276a.619.619,0,0,1-.09.065c-1.27.794-3.616,1.289-4.405,2.217S306.692,350.554,308.545,350.708Z" transform="translate(-254.606 -246.231)" fill="#f9c3a5"/>
        <g id="Group_131" data-name="Group 131" transform="translate(51.627 100.335)">
          <g id="Group_130" data-name="Group 130">
            <path id="Path_143" data-name="Path 143" d="M308.545,351.74a38.886,38.886,0,0,0,7.91-1c1.006-.294.393-1.992.01-2.934a1.856,1.856,0,0,1-.07-.211,7.436,7.436,0,0,1-3.144,1.423c-1.16.093-1.346-.7-2.247-1.011a.619.619,0,0,1-.09.065c-1.27.794-3.616,1.289-4.405,2.217S306.692,351.586,308.545,351.74Z" transform="translate(-306.233 -347.597)" fill="#2f2159"/>
          </g>
        </g>
        <path id="Path_144" data-name="Path 144" d="M288.732,350.189a38.875,38.875,0,0,0,7.91-1c1.007-.294.394-1.992.011-2.934a1.8,1.8,0,0,1-.07-.211,12.411,12.411,0,0,1,.047-3.364l-3.986.5s-.253,2.423-1.451,3.276a.6.6,0,0,1-.09.065c-1.27.8-3.616,1.29-4.406,2.218S286.88,350.034,288.732,350.189Z" transform="translate(-249.957 -246.109)" fill="#f9c3a5"/>
        <g id="Group_133" data-name="Group 133" transform="translate(36.464 99.937)">
          <g id="Group_132" data-name="Group 132">
            <path id="Path_145" data-name="Path 145" d="M288.732,351.221a38.875,38.875,0,0,0,7.91-1c1.007-.294.394-1.992.011-2.934a1.8,1.8,0,0,1-.07-.211,7.415,7.415,0,0,1-3.143,1.423c-1.16.093-1.346-.7-2.247-1.011a.6.6,0,0,1-.09.065c-1.27.8-3.616,1.29-4.406,2.218S286.88,351.066,288.732,351.221Z" transform="translate(-286.421 -347.077)" fill="#2f2159"/>
          </g>
        </g>
        <g id="Group_134" data-name="Group 134" transform="translate(42.295 56.797)">
          <path id="Path_146" data-name="Path 146" d="M305.1,290.711s-.673,2.931-1.431,6.276c-.941,4.194-2.005,9.046-2.005,9.544,0,.888-2.3,23.848-2.74,24.552s-3.9.574-4.661.383.7-24.3.574-26.4a91.3,91.3,0,0,1,1.439-10.386c.344-1.929.6-3.345.6-3.345Z" transform="translate(-294.04 -290.711)" fill="#2f2159"/>
        </g>
        <g id="Group_135" data-name="Group 135" transform="translate(44.53 56.797)">
          <path id="Path_147" data-name="Path 147" d="M305.784,290.711s-.674,2.931-1.431,6.276l-7.393-2.311c.344-1.929.6-3.345.6-3.345Z" transform="translate(-296.96 -290.711)" fill="#1d163a"/>
        </g>
        <g id="Group_136" data-name="Group 136" transform="translate(53.167 57.417)">
          <path id="Path_148" data-name="Path 148" d="M317.2,331.939c-.337.865-4.018.819-4.737.628s-3.972-21.912-4.163-23.588c-.13-1.117.023-8.028.138-12.5.054-2.235.1-3.857.1-3.857l8.235-1.1s-.061,1.133-.161,2.824c-.253,4.646-.712,13.478-.6,14.35C316.139,309.889,317.532,331.081,317.2,331.939Z" transform="translate(-308.245 -291.521)" fill="#2f2159"/>
        </g>
        <g id="Group_137" data-name="Group 137" transform="translate(53.354 57.417)">
          <path id="Path_149" data-name="Path 149" d="M316.825,291.521s-.061,1.133-.161,2.824l-8.174,2.135c.054-2.235.1-3.857.1-3.857Z" transform="translate(-308.49 -291.521)" fill="#1d163a"/>
        </g>
        <g id="Group_138" data-name="Group 138" transform="translate(49.557 0)">
          <path id="Path_150" data-name="Path 150" d="M304.445,224.143a4.539,4.539,0,0,1-.843-3.464,4.019,4.019,0,0,1,4.377-2.966c2.057.1,3.468.191,3.468.191s-.1-1.076.789-1.052,1.2,0,1.57-.287,1.085.383,1.54,1.46-.287,1.482-.359,1.841.383,1.435-.335,1.578a2.144,2.144,0,0,1-1.411-.311s1.865,1.148,1.482,4.258-2.59,4.514-3.946,3.994S304.445,224.143,304.445,224.143Z" transform="translate(-303.528 -216.499)" fill="#3d325e"/>
        </g>
        <path id="Path_151" data-name="Path 151" d="M305.8,221.228a13.194,13.194,0,0,0-1.148,5.334c.1,2.7,1.6,4.114,2.177,4.352a2.6,2.6,0,0,0,.885.24s.005,1.981-.762,2.449-2.777,1.952-1.821,2.788,6.41,1.269,7.271.982,2.033-.408,1.554-1.484A8.666,8.666,0,0,0,312,233.571a13.344,13.344,0,0,1-.431-2.9c-.047-1.555.12-2.751.55-3.061a1.612,1.612,0,0,0,.765-1.675c-.047-1.052-.742-1-1.411-.908s-2.128-1.029-2.726-2.057S306.64,220.63,305.8,221.228Z" transform="translate(-254.234 -217.574)" fill="#f9c3a5"/>
        <g id="Group_139" data-name="Group 139" transform="translate(41.833 15.997)">
          <path id="Path_152" data-name="Path 152" d="M319.7,245.82c-.191.666-4.584,4.11-5.158,4.684-.39.383-.651,3.176-.773,6-.061,1.37-.092,2.748-.092,3.857a26.1,26.1,0,0,0,.337,3.505c.536,3.589,1.538,8.227,1.814,11.656.383,4.737.429,4.684-.528,4.975s-4.209.046-5.931.429-9.184,1.248-11.526.482-4.5-.673-4.4-2.013c.031-.436.306-1.661.666-3.191.184-.773.39-1.615.6-2.48v-.008a44.957,44.957,0,0,0,1.27-6.712c0-.145.008-.352.031-.6.023-.3.061-.673.107-1.1.253-2.273.788-6.146,1.163-9.6v-.008c.4-3.781.612-7.041.038-7.133-1.278-.207-2.487.046-2.426-1.163a35.075,35.075,0,0,1,1.883-5.977,5.827,5.827,0,0,1,.865-1.737,41.475,41.475,0,0,1,4.271-1.615c1.209-.314,2.38-.628,2.518-.658-.138.092-1.148.788-.077,1.906,1.148,1.194,2.005,1.048,3.536.666s1.967-1.623,1.485-2.579c0,0,6.36,2.1,7.033,2.916S319.889,245.154,319.7,245.82Z" transform="translate(-293.436 -237.401)" fill="#383f9b"/>
        </g>
        <g id="Group_140" data-name="Group 140" transform="translate(42.502 24.416)">
          <path id="Path_153" data-name="Path 153" d="M314.216,266.448a10.962,10.962,0,0,0-4.646,1.959c-2.3,2.043-4.11,7.11-5.549,9.222-1.439,2.1-4.615,1.592-7.179,1.431-.85-.054-1.737-.161-2.533-.276.184-.773.39-1.615.6-2.48V276.3a44.957,44.957,0,0,0,1.27-6.712c0-.145.008-.352.031-.6l.689-1.347v-.008l1.071-2.074,1.837-3.582.559-1.094,6.414-12.475s.383.727.872,1.806l.008.008a25.045,25.045,0,0,1,2.013,6.169c.475,3.444.092,5.48,1.714,4.324.773-.551,1.76-1.148,2.587-1.623-.061,1.37-.092,2.748-.092,3.857A26.107,26.107,0,0,0,314.216,266.448Z" transform="translate(-294.31 -248.401)" fill="#272f6b"/>
        </g>
        <path id="Path_154" data-name="Path 154" d="M308.656,233.788a2.307,2.307,0,0,0,1.2-.407,6.674,6.674,0,0,0,.98-1.076s-.98,3.3-1.459,3.061S308.656,233.788,308.656,233.788Z" transform="translate(-255.175 -220.208)" fill="#f48e76"/>
        <g id="Group_143" data-name="Group 143" transform="translate(22.565 19.799)">
          <path id="Path_155" data-name="Path 155" d="M295.039,276.214a38.292,38.292,0,0,1-6.245-1.324v-.008c-.7-.2-1.408-.429-2.112-.674-11.25-3.957-21.736-12.521-17.434-20.151,5.373-9.536,14.917-1.546,14.917-1.546s.52-8.488,6.7-9.926a9.731,9.731,0,0,1,4.676.153c3.084.773,5.013,3.008,6,6.054l.008.008C303.956,256.231,300.764,268.491,295.039,276.214Z" transform="translate(-268.261 -242.368)" fill="#ed4357"/>
          <g id="Group_142" data-name="Group 142" transform="translate(13.412 11.949)">
            <g id="Group_141" data-name="Group 141">
              <path id="Path_156" data-name="Path 156" d="M286.2,264.518l3.088-1.329-1.329-3.087a.689.689,0,0,1,.36-.906l2.692-1.159a.689.689,0,0,1,.905.361l1.329,3.088,3.087-1.329a.69.69,0,0,1,.906.36l1.158,2.692a.689.689,0,0,1-.361.905l-3.088,1.329,1.329,3.088a.69.69,0,0,1-.36.906l-2.693,1.158a.688.688,0,0,1-.905-.361l-1.329-3.088-3.088,1.329a.69.69,0,0,1-.906-.36l-1.158-2.692A.69.69,0,0,1,286.2,264.518Z" transform="translate(-285.785 -257.981)" fill="#fff"/>
            </g>
          </g>
        </g>
        <path id="Path_157" data-name="Path 157" d="M318.581,252.222s2.72,5.63,2.464,6.14-5.58,3.54-6.665,4.082a40.407,40.407,0,0,1-4.082,1.85c-.307.011-3-1.371-3.126-.893s1.021,1.626.925,2.1-3.221,3.157-2.583,4.05,3.89-1.212,4.592-1.818a8.43,8.43,0,0,1,2.87-1.244c.8-.223,7.462-2.169,9.63-3.572s2.934-2.392,3-3.922-1.691-6.6-2.392-7.877a17.977,17.977,0,0,0-1.184-1.919l-1.86,1.681Z" transform="translate(-254.418 -224.174)" fill="#f9c3a5"/>
        <path id="Path_158" data-name="Path 158" d="M279.452,278.756s-1.286-1-1.089-2.015,2.683.006,3.608.867S282.035,280.286,279.452,278.756Z" transform="translate(-248.061 -230.536)" fill="#f9c3a5"/>
        <path id="Path_159" data-name="Path 159" d="M278.839,289.034a32.622,32.622,0,0,1-10.524-2c-11.286-4.059-19.2-11.97-22.916-16.326-5.283-6.2-6.57-10.7-6.622-10.886l1.107-.308c.012.044,1.288,4.467,6.389,10.45,3.639,4.268,11.394,12.02,22.431,15.989,5.9,2.121,13.378,2.962,16.8.063,1.594-1.351,2.15-3.422,1.65-6.154l1.13-.206c.578,3.165-.109,5.6-2.038,7.236C284.42,288.435,281.749,289.034,278.839,289.034Z" transform="translate(-238.777 -226.592)" fill="#ed4357"/>
      </g>
      <g id="Group_145" data-name="Group 145" transform="translate(154.508 38.711)">
        <path id="Path_160" data-name="Path 160" d="M231.685,223.045s-1.084,9.12,0,14.095,2.807,10.81,2.9,11.863-1.262,2.87-.726,3.827,5.414.478,5.318-.574a11.343,11.343,0,0,0-2.009-4.209c-.765-.957-3.462-10.711-3.309-14.013s0-9.427,0-9.427Z" transform="translate(-192.015 -81.967)" fill="#ed4357"/>
        <path id="Path_161" data-name="Path 161" d="M236.392,38.711H220.658a7.031,7.031,0,0,0-7.03,7.03h4.012a5.16,5.16,0,0,1,5.119-4.521h11.857a5.16,5.16,0,0,1,5.119,4.521h3.689A7.031,7.031,0,0,0,236.392,38.711Z" transform="translate(-187.891 -38.711)" fill="#afc6e8"/>
        <rect id="Rectangle_4" data-name="Rectangle 4" width="6.956" height="11.51" rx="3" transform="translate(20.323 131.917)" fill="#afc6e8"/>
        <rect id="Rectangle_5" data-name="Rectangle 5" width="6.956" height="11.51" rx="3" transform="translate(53.99 131.917)" fill="#afc6e8"/>
        <path id="Path_162" data-name="Path 162" d="M235.579,215.616v6.334a2.583,2.583,0,0,1-2.169,2.547,2.208,2.208,0,0,1-.413.034H230.69a2.584,2.584,0,0,1-2.581-2.581v-6.334Z" transform="translate(-191.289 -80.223)" fill="#afc6e8"/>
        <path id="Path_163" data-name="Path 163" d="M263.61,148.722c-.15,3.95-.885,6.6-5.756,14.492-4.056,6.566-10.875,11.247-13.045,12.624a2.713,2.713,0,0,1-1.453.422H200.324a2.69,2.69,0,0,1-1.453-.422c-2.17-1.377-8.989-6.058-13.045-12.624-4.871-7.891-5.615-10.542-5.756-14.492-.116-2.883-.062-55.618-.027-83.639A17.458,17.458,0,0,1,197.756,47.9h48.169a17.469,17.469,0,0,1,17.712,17.185C263.672,93.1,263.717,145.839,263.61,148.722Z" transform="translate(-180 -40.867)" fill="#cad9ed"/>
        <path id="Path_164" data-name="Path 164" d="M262.224,148.137c-.146,3.812-.843,6.368-5.481,13.984-3.863,6.342-10.352,10.86-12.417,12.194a2.555,2.555,0,0,1-1.385.4H226.47s-2.229.318-2.728,1.222c-.318.568-.361,3.735-.353,5.972a2.267,2.267,0,1,1-4.535,0,32.339,32.339,0,0,0-.31-5.654c-.43-1.36-3.261-1.541-3.261-1.541H201.971a2.534,2.534,0,0,1-1.385-.4c-2.065-1.334-8.553-5.853-12.417-12.194-4.638-7.617-5.344-10.172-5.481-13.984-.112-2.7-.06-50.549-.034-78.131.008-.9.008-1.764.008-2.616A16.732,16.732,0,0,1,199.528,50.8h45.856A16.743,16.743,0,0,1,262.25,67.391c0,1.858.008,3.838,0,5.9C262.284,101.219,262.31,145.538,262.224,148.137Z" transform="translate(-180.615 -41.548)" fill="#fff"/>
        <path id="Path_165" data-name="Path 165" d="M262.276,133.795c0,11.084-.018,19.164-.052,20.232-.146,3.812-.843,6.368-5.481,13.984-3.863,6.342-10.352,10.86-12.417,12.194a2.555,2.555,0,0,1-1.385.4h-16.47s-2.229.318-2.728,1.222c-.318.568-.361,3.735-.353,5.972a2.267,2.267,0,1,1-4.535,0,32.339,32.339,0,0,0-.31-5.654c-.43-1.36-3.261-1.541-3.261-1.541H201.972a2.534,2.534,0,0,1-1.385-.4c-2.065-1.334-8.553-5.853-12.417-12.194-4.638-7.617-5.344-10.172-5.481-13.984-.018-.456-.034-2.195-.043-4.905-.044-12.1-.018-43.571,0-66.436.008-2.366.008-4.638.008-6.789a19.963,19.963,0,0,0,13.226,3.236c13.914-1.145,18.5-5.018,29.119-1.575s14.052,8.459,24.094,5.74c4.887-1.326,9.5-3.3,13.157-4.114.008,3.425.008,7.091.008,10.895C262.276,104.6,262.285,121.153,262.276,133.795Z" transform="translate(-180.615 -47.437)" fill="#ed4357"/>
        <path id="Path_166" data-name="Path 166" d="M262.284,151.547c0,11.084-.018,19.164-.052,20.232-.146,3.812-.843,6.368-5.481,13.984-3.863,6.342-10.352,10.86-12.417,12.194a2.555,2.555,0,0,1-1.385.4h-16.47s-2.229.318-2.728,1.222c-.318.568-.361,3.735-.353,5.972a2.267,2.267,0,1,1-4.535,0,32.338,32.338,0,0,0-.31-5.654c-.43-1.36-3.261-1.541-3.261-1.541H201.979a2.534,2.534,0,0,1-1.385-.4c-2.065-1.334-8.553-5.853-12.417-12.194-4.638-7.617-5.344-10.172-5.481-13.984-.018-.456-.034-2.195-.043-4.905,3.571,7.685,8.364,14.612,14.671,17.934,18.5,9.75,19.646-7.341,37.286-2.522s21.082-7.444,23.1-18.666C258.626,158.44,260.167,153.913,262.284,151.547Z" transform="translate(-180.623 -65.189)" fill="#c12d57"/>
        <path id="Path_167" data-name="Path 167" d="M262.266,90.078c-10.377,5.2-18.716,1.084-27.656-4.173-10.679-6.273-23.664-3.184-37.286-.318-4.8,1.016-9.982-.508-14.671-2.9.008-2.366.008-4.638.008-6.789a19.963,19.963,0,0,0,13.226,3.236c13.914-1.145,18.5-5.018,29.119-1.575s14.052,8.459,24.094,5.74c4.887-1.326,9.5-3.3,13.157-4.114C262.266,82.608,262.266,86.274,262.266,90.078Z" transform="translate(-180.623 -47.437)" fill="#f75959"/>
        <path id="Path_168" data-name="Path 168" d="M251.372,117.952v11.126a1.968,1.968,0,0,1-1.926,2H236.031v13.912a1.968,1.968,0,0,1-1.926,2H223.377a1.963,1.963,0,0,1-1.926-2V131.076H208.036a1.968,1.968,0,0,1-1.926-2V117.952a1.968,1.968,0,0,1,1.926-2h13.415V102.043a1.962,1.962,0,0,1,1.926-2h10.729a1.968,1.968,0,0,1,1.926,2v13.912h13.415A1.968,1.968,0,0,1,251.372,117.952Z" transform="translate(-186.127 -53.104)" fill="#f75959"/>
        <path id="Path_169" data-name="Path 169" d="M248.151,120.934v8.526a1.535,1.535,0,0,1-1.531,1.531H235.959v10.661a1.535,1.535,0,0,1-1.531,1.531H225.9a1.53,1.53,0,0,1-1.531-1.531V130.99H213.711a1.535,1.535,0,0,1-1.531-1.531v-8.526a1.535,1.535,0,0,1,1.531-1.531h10.661V108.742a1.53,1.53,0,0,1,1.531-1.531h8.526a1.535,1.535,0,0,1,1.531,1.531V119.4H246.62A1.535,1.535,0,0,1,248.151,120.934Z" transform="translate(-187.551 -54.785)" fill="#fff"/>
      </g>
      <circle id="Ellipse_10" data-name="Ellipse 10" cx="0.705" cy="0.705" r="0.705" transform="translate(113.16 153.209)" fill="#d7e2f2"/>
      <circle id="Ellipse_11" data-name="Ellipse 11" cx="0.67" cy="0.67" r="0.67" transform="translate(123.401 112.034)" fill="#d7e2f2"/>
      <path id="Path_170" data-name="Path 170" d="M144.846,119.238a1.87,1.87,0,1,1-1.87-1.87A1.87,1.87,0,0,1,144.846,119.238Z" transform="translate(-16.365 -18.458)" fill="#d7e2f2"/>
      <path id="Path_171" data-name="Path 171" d="M295.051,194.5a1.069,1.069,0,1,1-1.069-1.069A1.069,1.069,0,0,1,295.051,194.5Z" transform="translate(-51.988 -36.307)" fill="#d7e2f2"/>
      <path id="Path_172" data-name="Path 172" d="M339.391,207.675a.783.783,0,1,1-.783-.784A.783.783,0,0,1,339.391,207.675Z" transform="translate(-62.527 -39.465)" fill="#d7e2f2"/>
      <circle id="Ellipse_12" data-name="Ellipse 12" cx="0.739" cy="0.739" r="0.739" transform="translate(254.275 109.57)" fill="#d7e2f2"/>
      <path id="Path_173" data-name="Path 173" d="M301.989,84.068a1.247,1.247,0,1,1-1.247-1.248A1.246,1.246,0,0,1,301.989,84.068Z" transform="translate(-53.533 -10.351)" fill="#d7e2f2"/>
      <path id="Path_174" data-name="Path 174" d="M346.873,138.9a.963.963,0,1,1-.963-.963A.963.963,0,0,1,346.873,138.9Z" transform="translate(-64.198 -23.285)" fill="#d7e2f2"/>
      <circle id="Ellipse_13" data-name="Ellipse 13" cx="1.677" cy="1.677" r="1.677" transform="translate(294.283 151.532)" fill="#d7e2f2"/>
      <path id="Path_175" data-name="Path 175" d="M338.723,286.48a1.748,1.748,0,1,1-1.747-1.747A1.747,1.747,0,0,1,338.723,286.48Z" transform="translate(-61.918 -57.731)" fill="#d7e2f2"/>
      <path id="Path_176" data-name="Path 176" d="M215.442,326.843a1.631,1.631,0,1,1-1.631-1.632A1.631,1.631,0,0,1,215.442,326.843Z" transform="translate(-33.043 -67.23)" fill="#d7e2f2"/>
      <circle id="Ellipse_14" data-name="Ellipse 14" cx="0.77" cy="0.77" r="0.77" transform="translate(147.631 223.125)" fill="#fff"/>
      <path id="Path_177" data-name="Path 177" d="M193.414,267.133a.874.874,0,1,1-.874-.873A.874.874,0,0,1,193.414,267.133Z" transform="translate(-28.23 -53.396)" fill="#fff"/>
      <path id="Path_178" data-name="Path 178" d="M204.307,289.09a.681.681,0,1,1-.68-.68A.681.681,0,0,1,204.307,289.09Z" transform="translate(-30.876 -58.594)" fill="#fff"/>
      <path id="Path_179" data-name="Path 179" d="M225.558,299.03a1.655,1.655,0,1,1-1.655-1.655A1.655,1.655,0,0,1,225.558,299.03Z" transform="translate(-35.406 -60.698)" fill="#fff"/>
      <path id="Path_180" data-name="Path 180" d="M233.989,278.892a.683.683,0,1,1-.683-.683A.683.683,0,0,1,233.989,278.892Z" transform="translate(-37.84 -56.2)" fill="#fff"/>
      <path id="Path_181" data-name="Path 181" d="M257.609,292.061a.54.54,0,1,1-.54-.54A.54.54,0,0,1,257.609,292.061Z" transform="translate(-43.45 -59.324)" fill="#fff"/>
      <path id="Path_182" data-name="Path 182" d="M258.242,260.721a1.21,1.21,0,1,1-1.21-1.211A1.21,1.21,0,0,1,258.242,260.721Z" transform="translate(-43.284 -51.813)" fill="#fff"/>
      <path id="Path_183" data-name="Path 183" d="M244.368,253.751a.808.808,0,1,1-.808-.808A.808.808,0,0,1,244.368,253.751Z" transform="translate(-40.217 -50.272)" fill="#fff"/>
      <path id="Path_184" data-name="Path 184" d="M173.846,206.8a.664.664,0,1,1-.664-.664A.665.665,0,0,1,173.846,206.8Z" transform="translate(-23.736 -39.287)" fill="#fff"/>
      <circle id="Ellipse_15" data-name="Ellipse 15" cx="0.773" cy="0.773" r="0.773" transform="translate(282.197 193.713)" fill="#fff"/>
      <path id="Path_185" data-name="Path 185" d="M298.508,233.073a.768.768,0,1,1-.768-.768A.768.768,0,0,1,298.508,233.073Z" transform="translate(-52.94 -45.429)" fill="#fff"/>
      <path id="Path_186" data-name="Path 186" d="M336.663,267.61a.59.59,0,1,1-.59-.59A.59.59,0,0,1,336.663,267.61Z" transform="translate(-61.977 -53.575)" fill="#fff"/>
      <path id="Path_187" data-name="Path 187" d="M160.073,164.834a.5.5,0,1,1-.5-.5A.5.5,0,0,1,160.073,164.834Z" transform="translate(-20.582 -29.479)" fill="#fff"/>
      <path id="Path_188" data-name="Path 188" d="M139.3,156.816a.713.713,0,1,1-.713-.713A.713.713,0,0,1,139.3,156.816Z" transform="translate(-15.607 -27.547)" fill="#fff"/>
      <circle id="Ellipse_16" data-name="Ellipse 16" cx="0.922" cy="0.922" r="0.922" transform="translate(242.035 91.705)" fill="#fff"/>
      <path id="Path_189" data-name="Path 189" d="M313.821,120.638a.767.767,0,1,1-.767-.767A.767.767,0,0,1,313.821,120.638Z" transform="translate(-56.534 -19.045)" fill="#fff"/>
    </g>
  </g>
</svg>
