<svg xmlns="http://www.w3.org/2000/svg" width="281.57" height="282.887" viewBox="0 0 281.57 282.887">
  <g id="Group_2528" data-name="Group 2528" transform="translate(-9.93 -118.599)">
    <path id="Path_7" data-name="Path 7" d="M704.628,706.547a101.8,101.8,0,0,1-15.575,13.114c-50.808,36.455-110.927,25.829-123.7,23.233-18.868-3.832-55.338-11.239-81.706-42.247-39.892-46.912-33.68-120.821-2.737-169.61,5.66-8.924,35.557-58.456,96.324-66.4,36.775-4.807,79.644,4.888,110.688,30.9C753.082,550.129,748.443,660.42,704.628,706.547Z" transform="translate(-445.766 -344.852)" fill="#fff6f7"/>
    <g id="Group_2489" data-name="Group 2489" transform="translate(39.84 152.704)">
      <g id="Group_2505" data-name="Group 2505" transform="translate(93.337 13.154)">
        <g id="Group_2493" data-name="Group 2493" transform="translate(42.203 79.376)">
          <g id="Group_2490" data-name="Group 2490" transform="translate(0 13.672)">
            <path id="Path_545" data-name="Path 545" d="M323.051,371.184c-2.582,6.969-14.2,3.742-12.646,10.582h23.227s.645-8.388-.774-10.84Z" transform="translate(-310.263 -297.719)" fill="#8ec1b9"/>
            <g id="Group_2489-2" data-name="Group 2489" transform="translate(8.577)">
              <path id="Path_546" data-name="Path 546" d="M325.7,242.444c-.862,3.957,0,8.946,0,13.076,0,7.053.171,14.28.343,21.333.173,7.227,0,14.8.517,22.023.172,1.892.86,3.614.689,5.334-.173.86-1.206,1.377-1.206,2.237,0,1.2,1.033,1.72,1.206,2.581a13.893,13.893,0,0,1-.871,7.553c3.269.861,8.44.534,11.365.877-1.032-8.258-.516-16.517-.861-24.775-.344-10.494-1.2-20.817-1.375-31.141-.173-5.678-1.377-13.075,0-18.41Z" transform="translate(-325.316 -242.444)" fill="#6f9ec9"/>
              <path id="Path_547" data-name="Path 547" d="M332.277,365.71a19.414,19.414,0,0,0,4.655,1.108c1.182.222,5.023,1.33,5.91.075-1.256-.961-3.916-.961-5.468-1.553a22.358,22.358,0,0,1-4.655-2.216c3.1-.148,6.059.443,9.162-.148" transform="translate(-328.311 -294.299)" fill="none" stroke="#547e9e" stroke-miterlimit="10" stroke-width="1"/>
              <path id="Path_548" data-name="Path 548" d="M333.574,359.087a34.6,34.6,0,0,1,6.131.664" transform="translate(-328.869 -292.625)" fill="none" stroke="#547e9e" stroke-miterlimit="10" stroke-width="1"/>
            </g>
          </g>
          <g id="Group_2492" data-name="Group 2492" transform="translate(10.247)">
            <path id="Path_549" data-name="Path 549" d="M340.207,378.022c1.032,3.1-4.669,4.156-6.773,5-1.645.658-5.559-.18-5.159,6.262,0,0,2.986-.076,5.05-.076,3.441.173,13.591,0,15.312,0,2.581,0,2.237.085,2.581-2.15s.344-6.968-.516-8.689Z" transform="translate(-328.246 -287.1)" fill="#a2ddd4"/>
            <g id="Group_2491" data-name="Group 2491" transform="translate(3.874)">
              <path id="Path_550" data-name="Path 550" d="M335.045,223.174c0,11.871,1.377,23.4,1.721,35.27.172,7.227.688,14.281,1.2,21.506.172,3.269,1.721,6.882,1.377,10.151-.517,2.408-1.2,3.441-.517,5.678.861,2.925,1.032,3.268.517,5.849-.345,2.409.3,3.269.3,5.506a7.242,7.242,0,0,1-1.1,4.065c2.925,2.064,9.227,2.129,12.668,2.3,1.2,0,4.99-.516,4.99-.516.86-.861.688-4.817.516-5.85-.516-2.408-1.893-2.753-2.581-4.645-.516-1.893.516-3.958.86-5.678.861-4.129-1.375-7.742-1.032-11.7.344-4.473.172-8.6.344-13.075.516-8.947.861-17.894,1.2-26.84.345-8.775,0-17.377-.172-26.152-5.506-.516-14.108-1.032-19.1,0Z" transform="translate(-335.045 -218.449)" fill="#82b5db"/>
              <path id="Path_551" data-name="Path 551" d="M357.451,375.958c-2.71.774-10.452.258-12.517-1.807,2.968-.386,9.936.9,12-1.806-3.355-1.678-7.872.258-11.227-1.419" transform="translate(-339.299 -284.047)" fill="none" stroke="#547e9e" stroke-miterlimit="10" stroke-width="1"/>
              <path id="Path_552" data-name="Path 552" d="M348.558,366.169c2.967,1.162,5.807.774,8.775.388" transform="translate(-340.859 -282)" fill="none" stroke="#547e9e" stroke-miterlimit="10" stroke-width="1"/>
            </g>
          </g>
        </g>
        <g id="Group_2502" data-name="Group 2502" transform="translate(0 23.871)">
          <g id="Group_2496" data-name="Group 2496">
            <path id="Path_553" data-name="Path 553" d="M304.849,159.576c.6,2.064.86,4.3,1.377,6.452a13.192,13.192,0,0,0,1.806,4.732c1.549,2.236,2.323.688,2.323-1.291a46.165,46.165,0,0,0-.516-6.022c-.086-1.118-.086-4.044-.774-4.645Z" transform="translate(-265.731 -137.283)" fill="#6f9ec9"/>
            <g id="Group_2494" data-name="Group 2494">
              <path id="Path_554" data-name="Path 554" d="M288.4,144.485s-7.217,4.226-11.4,4.415c-4.369.189-11.522-6.029-15-8.225-4.12-2.6-6.465-6.262-8.935-4.363-2.659,2.279,15,15.2,18.61,17.666,1.9,1.52,2.469,2.469,4.748,2.09a26.522,26.522,0,0,0,5.508-1.709c3.039-1.139,7.083-2.442,9.552-4.341Z" transform="translate(-243.338 -127.382)" fill="#e59f89"/>
              <path id="Path_555" data-name="Path 555" d="M248.918,130.733a9,9,0,0,0-2.405-4.033c-1.282-1.709-5.7-6.587-6.712-5.511-.723.665,2.755,3.4,3.467,5.11-2.2-1.489-5.422-4.7-6.743-3.543-.587.7,4.239,3.8,5.663,4.939-.712-.427-5.236-3.23-5.948-1.948-.57,1,4.4,2.439,5.111,3.151-1,0-5.121.113-3.687,1.265.444.356,2.733-.458,4.157.54,1.567,1.14,2.68,2.879,4.675,2.879a37.684,37.684,0,0,1,3.846-.285Z" transform="translate(-236.194 -121.036)" fill="#e59f89"/>
              <path id="Path_556" data-name="Path 556" d="M257.141,135.974c0-1.567-1.852-3.276-2.991-4.273-.712-.57-3.7-3.276-4.132-1.567-.142.855,1.567,1.994,2.137,2.422v.142c-.712,1.994.855,3.846,2.849,4.558" transform="translate(-242.138 -124.709)" fill="#e59f89" stroke="#c66" stroke-miterlimit="10" stroke-width="1"/>
            </g>
            <g id="Group_2495" data-name="Group 2495" transform="translate(41.017 5.991)">
              <path id="Path_557" data-name="Path 557" d="M310.653,160.137c.9-1.1-2.084-15.722-2.472-16.625,0,0,1.2-.284,1.844-.348.9-.129.9-.516,1.548-1.1.517-.581,1.29-.709,1.936-1.161a23.076,23.076,0,0,0,1.871-1.677,15.358,15.358,0,0,0,3.29-3.807c.9-1.549,1.807-2.774,3.678-3.291a17.535,17.535,0,0,1,3.684-.574c.258,1.935-.91,4.639-1.168,6.51-.258,2-.323,4.065-.581,6.064a12.073,12.073,0,0,1-.13,2.194,8.943,8.943,0,0,1-1.16,2c-.9,1.419-1.936,2.774-2.9,4.129a23.25,23.25,0,0,1-4.774,4.645c-1.226.968-2.932,2.844-4.48,3.038Z" transform="translate(-308.181 -131.55)" fill="#82b5db"/>
              <path id="Path_558" data-name="Path 558" d="M324.9,142.194c0,2.15-.172,4.3-.085,6.452.085,1.807.689,4.3-.259,5.937-1.548-2.5-.343-6.452-2.493-8.775-2.065,1.634.43,7.57,1.462,9.118" transform="translate(-313.813 -136.129)" fill="none" stroke="#547e9e" stroke-miterlimit="10" stroke-width="1"/>
              <path id="Path_559" data-name="Path 559" d="M317.017,156.688c-.688,2.408,3.1,5.162,4.818,6.28" transform="translate(-311.947 -142.365)" fill="none" stroke="#547e9e" stroke-miterlimit="10" stroke-width="1"/>
            </g>
          </g>
          <g id="Group_2497" data-name="Group 2497" transform="translate(48.152 5.665)">
            <path id="Path_560" data-name="Path 560" d="M320.7,195.823a23.156,23.156,0,0,1,2.064-10.582c1.29-2.839-.387-4.774.258-7.484.258-1.548,1.032-2.452,1.032-4.129,0-1.807-.258-3.742-.128-5.549.258-5.935,1.806-11.742,1.935-17.808.129-2.967,0-5.935,0-9.032,0-2.194.281-5.866,1.442-7.8,2.194-3.355,11.075-2.393,14.43-2.135,6.58.516,10.968,5.162,13.161,11.1a36.339,36.339,0,0,1,1.291,17.808c-.645,3.355-1.806,6.452-2.194,9.678a23.751,23.751,0,0,0-.386,4.258c.258,1.549,1.676,2.323,1.806,4,.129,1.162-.9,1.807-1.291,2.71-.645,1.549-.387,1.291-.129,2.71.259,1.806,0,3.613.259,5.29.387,3.226,1.032,7.872,2.451,10.71a21.157,21.157,0,0,1-10.581,1.42c-.645-4.517-1.032-9.549-2.452-13.807-.257,4.387-.645,8.516-.645,12.9-7.1.9-15.1-2.064-21.678-3.871Z" transform="translate(-320.703 -130.977)" fill="#94cbed"/>
            <path id="Path_561" data-name="Path 561" d="M330.893,212.4a35.934,35.934,0,0,0,4.9,1.549c2.194.516,6.452,1.032,8.129,2.58.242,2.042-8.9-.258-12.388-.9" transform="translate(-325.087 -166.006)" fill="#94cbed" stroke="#6f9ec9" stroke-miterlimit="10" stroke-width="1"/>
            <path id="Path_562" data-name="Path 562" d="M328.4,221.005c2.838,3.226,8.516,2.451,12.258,2.451" transform="translate(-324.016 -169.708)" fill="#94cbed" stroke="#6f9ec9" stroke-miterlimit="10" stroke-width="1"/>
            <path id="Path_563" data-name="Path 563" d="M336.707,148.145c.43-3.01,1.806-6.366,2.838-9.29.6-1.721,1.292-3.957,2.581-5.248,1.291-1.376,3.442-1.2,5.161-1.118,1.377.086,4.645,0,5.334,1.29.946,1.549-2.065,3.958-3.1,4.9-3.44,2.925-7.225,5.333-10.752,8.258-.6.516-1.291,1.118-1.979,1.635Z" transform="translate(-327.588 -131.603)" fill="#ffcdbb"/>
            <path id="Path_564" data-name="Path 564" d="M355.137,158.546c-3.386.218-6.991-.109-10.488,0a34.09,34.09,0,0,0-1.2,6.664c1.858.109,9.5,1.312,10.379,0Z" transform="translate(-330.488 -142.828)" fill="#fff"/>
            <path id="Path_565" data-name="Path 565" d="M352.275,154.626c.619.109,1.276.073,1.933.146a10.753,10.753,0,0,1-.182,1.86,7.521,7.521,0,0,1-.328,2.225,4.268,4.268,0,0,1-1.642-.292Z" transform="translate(-334.191 -141.151)" fill="#cecece"/>
            <path id="Path_566" data-name="Path 566" d="M345.63,159.306s-.409,2.142-.51,2.805l1.883.218.514-3.023Z" transform="translate(-331.208 -143.165)" fill="#6da8a1"/>
          </g>
          <g id="Group_2501" data-name="Group 2501" transform="translate(23.384 16.023)">
            <g id="Group_2499" data-name="Group 2499" transform="translate(0 17.613)">
              <path id="Path_567" data-name="Path 567" d="M288.231,188.5c-2.233-.538-2.233-4.774-1.849-6.468.154-.693.462-1.463-.308-1.848a1.869,1.869,0,0,0-2.156.847,8.111,8.111,0,0,0-.77,4.466,16.95,16.95,0,0,0-4.824.231,1.319,1.319,0,0,0-.117,2.568c-1.882,1.411.717,2.468.717,2.468a1.192,1.192,0,0,0,.636,2.231s-.652.9,0,1.521c.546.522,1.885.321,3.125.3a10.547,10.547,0,0,0,4.158-1.155c.693-.385,2.387-2,1.694-2.849Z" transform="translate(-277.235 -180.068)" fill="#ffcdbb"/>
              <g id="Group_2498" data-name="Group 2498" transform="translate(9.029 7.823)">
                <path id="Path_568" data-name="Path 568" d="M325.591,195.305c-2.892.247-26.149-.726-26.32-.749-1.626-.087-3.872-.46-5.725-.759a2.549,2.549,0,0,0-.448,1.727,6.176,6.176,0,0,0,1.206,2.789c.129.219-.213.157-.068.379.091-.128.758-.107.758-.107s13.839,3.267,16.769,3.781c5.493,1.105,12.786,4,15.915-2.2C329.032,197.569,329.488,194.966,325.591,195.305Z" transform="translate(-293.082 -193.797)" fill="#ffcdbb"/>
              </g>
            </g>
            <g id="Group_2500" data-name="Group 2500" transform="translate(33.444)">
              <path id="Path_569" data-name="Path 569" d="M349.4,149.156a50.426,50.426,0,0,1-3.619,8.571c-.683,1.064-1.617,1.818-2.3,2.882-.615.958-.648,2.064-1.156,3.091a7.716,7.716,0,0,1-1.89,2.243,14.449,14.449,0,0,0-1.989,2.631,14.7,14.7,0,0,1-1.7,2.293c-.807.909-1.109.791-.492,1.938,1.05,1.876,3.343,3.572,4.754,5,2.929,2.93,6.324,5.484,8.99,8.471a14.759,14.759,0,0,0,3.773-4.942c.86-1.928.943-3.227,2.443-4.744a16.863,16.863,0,0,0,3.091-4.7c.967-1.859,2.359-3.444,3.151-5.265" transform="translate(-335.931 -149.156)" fill="#94cbed" stroke="#6f9ec9" stroke-miterlimit="10" stroke-width="1"/>
              <path id="Path_570" data-name="Path 570" d="M341.583,188.712a67.549,67.549,0,0,0,5.152,4.733c.8.74,2.746,2.512,3.968,2.245,1.767-.295-.643-1.689-1.32-2.274-1.76-1.355-5.236-3.434-5.575-5.831-.371-2.115,1.447-.5,2.53.271,2.7,1.882,5.3,4.151,8.626,4.706" transform="translate(-338.363 -165.238)" fill="#94cbed" stroke="#6f9ec9" stroke-miterlimit="10" stroke-width="1"/>
              <path id="Path_571" data-name="Path 571" d="M347.793,181.287c.656,1.321,3.3,2.116,4.54,2.761a28.337,28.337,0,0,0,6.366,1.905" transform="translate(-341.034 -162.979)" fill="#94cbed" stroke="#6f9ec9" stroke-miterlimit="10" stroke-width="1"/>
            </g>
          </g>
        </g>
        <g id="Group_2504" data-name="Group 2504" transform="translate(54.127)">
          <path id="Path_572" data-name="Path 572" d="M342.85,115.9c0-1.893-1.291-3.785-1.635-5.677-.6.43-2.237,1.72-3.011,1.548-1.377-.258-1.721-3.441-1.806-4.731-1.033-.086-2.151.086-3.183.086.258-1.118,1.29-2.236,1.462-3.441-1.549-.085-5.333-1.377-2.408-2.753,2.065-.946,2.924-1.549,3.7-3.957.516-1.72.43-3.785,1.548-5.334s3.355-2.495,5.335-2.925c9.032-2.065,14.71,9.377,10.494,16.6-1.29,2.15-3.957,2.495-4.3,5.162a8.945,8.945,0,0,0,.258,3.011c.086.43.946,2.064.688,1.72" transform="translate(-331.19 -83.153)" fill="#ffcdbb"/>
          <path id="Path_573" data-name="Path 573" d="M354.775,102.164a9.635,9.635,0,0,0-1.289,4.387h0c.43.085.946.085,1.375.172-.086-2.065,2.668-2.925,3.958-4.13,1.377-1.376,1.806-3.527,2.409-5.334a11.5,11.5,0,0,0,.859-4.473c0-2.236-1.622-3.818-3.354-4.818a57.441,57.441,0,0,1-6.624-4.559c-1.892-1.463-4.511-4.731-5.592-4.215-.688,1.032.86,3.011,1.462,3.957-1.635-.6-3.612-3.613-4.387-2.925-1.635,2.667,4.387,5.334,6.107,5.935,1.98.775,1.892.688,1.291,2.667-.43,1.549-1.206,3.1-1.463,4.56.6.085,1.29.085,1.978.172a22.425,22.425,0,0,0-1.2,4.731c1.462.344,4.645.774,5.849.259Z" transform="translate(-336.406 -79.14)"/>
          <path id="Path_574" data-name="Path 574" d="M359.2,111.4c.172-2.065,1.377-5.076,3.872-4.989,4.387.258,1.978,7.914-2.236,7.053a1.96,1.96,0,0,1-1.032-.516Z" transform="translate(-343.241 -90.872)" fill="#ffcdbb"/>
          <g id="Group_2503" data-name="Group 2503" transform="translate(2.025 10.242)">
            <path id="Path_575" data-name="Path 575" d="M334.744,119.666c2.439-.236,4.811,0,6.387-2.043" transform="translate(-334.744 -105.938)" fill="none" stroke="#c66" stroke-miterlimit="10" stroke-width="0.8"/>
            <path id="Path_576" data-name="Path 576" d="M344.594,97.122a1.252,1.252,0,0,1,1.354,1.1" transform="translate(-338.982 -97.115)" fill="none" stroke="#000" stroke-miterlimit="10" stroke-width="1"/>
            <path id="Path_577" data-name="Path 577" d="M343.138,105.455c0,.659-.163,1.193-.365,1.193s-.365-.534-.365-1.193.164-1.194.365-1.194S343.138,104.795,343.138,105.455Z" transform="translate(-338.041 -100.189)"/>
          </g>
        </g>
      </g>
      <g id="Group_2507" data-name="Group 2507" transform="translate(50.546 0)">
        <path id="Path_578" data-name="Path 578" d="M202.2,388.938c.31,1.235-7.19,2.306-16.059,2.306s-16.375-1.073-16.058-2.306c1.138-4.427,7.19-3.641,16.058-3.641S201.1,384.533,202.2,388.938Z" transform="translate(-164.958 -197.676)" fill="#8e8e8e"/>
        <ellipse id="Ellipse_19" data-name="Ellipse 19" cx="14.416" cy="2.07" rx="14.416" ry="2.07" transform="translate(6.772 187.049)" fill="#b7b7b7"/>
        <g id="Group_2506" data-name="Group 2506" transform="translate(0)">
          <path id="Path_579" data-name="Path 579" d="M222.376,91.343a1.71,1.71,0,0,1-1.709-1.709V77.1a1.709,1.709,0,0,1,3.419,0V89.634A1.71,1.71,0,0,1,222.376,91.343Z" transform="translate(-186.723 -64.373)" fill="#686868"/>
          <path id="Path_580" data-name="Path 580" d="M196.983,245.794a1.71,1.71,0,0,1-1.709-1.709V57.764a1.709,1.709,0,1,1,3.419,0v186.32A1.709,1.709,0,0,1,196.983,245.794Z" transform="translate(-175.799 -56.055)" fill="#b7b7b7"/>
          <path id="Path_581" data-name="Path 581" d="M201.529,77.974H162.8a1.709,1.709,0,0,1,0-3.419h38.726a1.709,1.709,0,0,1,0,3.419Z" transform="translate(-161.094 -64.014)" fill="#b7b7b7"/>
        </g>
      </g>
      <g id="Group_2512" data-name="Group 2512" transform="translate(0 76.574)">
        <g id="Group_2508" data-name="Group 2508" transform="translate(56.759 85.245)">
          <path id="Path_582" data-name="Path 582" d="M257.464,414.633c.824,3.287-19.126,6.136-42.719,6.136s-43.563-2.854-42.719-6.136c3.026-11.776,19.126-9.686,42.719-9.686S254.524,402.915,257.464,414.633Z" transform="translate(-172 -367.911)" fill="#8e8e8e"/>
          <ellipse id="Ellipse_20" data-name="Ellipse 20" cx="38.35" cy="5.508" rx="38.35" ry="5.508" transform="translate(4.403 35.517)" fill="#b7b7b7"/>
          <path id="Path_583" data-name="Path 583" d="M252.879,348.932v-.889a7.834,7.834,0,0,0-7.672-7.988H212.831a7.834,7.834,0,0,0-7.672,7.988v.889a8.117,8.117,0,0,0,2.391,5.786,8.113,8.113,0,0,0-2.391,5.784v.889a8.115,8.115,0,0,0,2.391,5.785,8.114,8.114,0,0,0-2.391,5.785v.889a7.834,7.834,0,0,0,7.672,7.988h32.376a7.833,7.833,0,0,0,7.672-7.988v-.889a8.117,8.117,0,0,0-2.391-5.785,8.118,8.118,0,0,0,2.391-5.785V360.5a8.115,8.115,0,0,0-2.391-5.784A8.119,8.119,0,0,0,252.879,348.932Z" transform="translate(-186.265 -340.055)" fill="#686868"/>
        </g>
        <g id="Group_2509" data-name="Group 2509" transform="translate(61.664 34.535)">
          <path id="Path_584" data-name="Path 584" d="M244.614,260.837a42.587,42.587,0,0,0,5.888-2.944c.987-.538,4.344-2.095,4.069-3.466a2.775,2.775,0,0,0-1.41-.712,69.02,69.02,0,0,0-7.734-.474c-16.1-.855-41.458-2.185-50.2-2.185-5.7,0-9.5,3.229-14.624,4.938l.549,3.836c12.569.415,50.992,1.672,55.67,1.672C239.3,261.5,242.335,261.6,244.614,260.837Z" transform="translate(-180.608 -251.055)" fill="#b5eae0"/>
          <path id="Path_585" data-name="Path 585" d="M254.985,256.972c.275,1.371-3.082,2.928-4.069,3.466a42.586,42.586,0,0,1-5.888,2.944c-2.279.76-5.318.664-7.787.664-4.677,0-43.1-1.257-55.67-1.672l1,6.984s62.837,1.905,67.774,1.146c4.558-.95,4.749-5.7,5.128-9.5C255.615,259.33,255.854,257.859,254.985,256.972Z" transform="translate(-181.023 -253.601)" fill="#93ccc1"/>
        </g>
        <g id="Group_2510" data-name="Group 2510" transform="translate(0 7.755)">
          <path id="Path_586" data-name="Path 586" d="M91.858,218.3c5.413,4.273,9.686,11.4,13.675,16.809,4.558,5.983,9.117,11.681,13.96,17.094,4.843,5.7,9.4,12.535,15.384,16.809,4.843,3.7,11.965,4.273,18.233,4.843,11.965,1.14,25.071,0,37.322-1.14a79.942,79.942,0,0,1,19.894.82c15.778,2.355,31.437,5.863,47.056,9.151,4.056.706,7.236-.228,8.6-2.663-1.287-2.5-4-5.111-5.467-7.309-3.7-5.128-16.237-19.411-22.22-21.121-5.413-1.424-14.395-.432-19.807-1.857l-36.033-.668a60.125,60.125,0,0,1-26.211-5.413c-14.245-6.268-20.8-20.8-28.774-33.048-3.7-5.7-5.413-6.553-12.821-6.553-7.523,0-15.738,3.138-22.737,5.561-4.725,1.636-9.855,4.418-13.187,7.984C82.743,215.285,88.03,215.137,91.858,218.3Z" transform="translate(-75.112 -204.055)" fill="#fff6f7"/>
          <path id="Path_587" data-name="Path 587" d="M263.77,290.2a7.357,7.357,0,0,0-.516-1.238c-1.364,2.435-4.545,3.369-8.6,2.663-15.619-3.288-31.278-6.8-47.056-9.151a79.943,79.943,0,0,0-19.894-.82c-12.25,1.14-25.356,2.279-37.322,1.14-6.268-.57-13.39-1.14-18.233-4.843-5.983-4.273-10.541-11.111-15.384-16.809-4.843-5.413-9.4-11.111-13.96-17.094-3.989-5.413-8.262-12.535-13.675-16.809-3.828-3.163-9.115-3.015-13.133-.7-4.143,4.435-5.506,10.084.156,16.256,8.646,9.427,16.709,19.068,25.692,28.213,3.35,3.411,6.527,6.88,10.077,10.076,5.128,4.558,10.256,9.4,16.239,12.82s14.53,3.419,21.367,3.134c17.663-1.14,35.042-5.128,52.706-.855,8.262,2.279,37.321,7.122,43.019,7.977,7.122.855,12.535,1.424,16.239-5.7C262.915,295.9,264.91,293.331,263.77,290.2Z" transform="translate(-72.384 -212.991)" fill="#ee848e"/>
        </g>
        <g id="Group_2511" data-name="Group 2511" transform="translate(16.921)">
          <path id="Path_588" data-name="Path 588" d="M138.826,205.9c-1.04-2.175-2.175-4.256-3.31-6.432a19.414,19.414,0,0,0-4.823-6.81,7.927,7.927,0,0,0-6.526-2.175,25.173,25.173,0,0,0-6.337,1.7c-2.269.851-4.539,1.7-6.81,2.743-1.874.815-4.8,1.422-6.481,2.9a4.008,4.008,0,0,1,2.981-.256,14.711,14.711,0,0,1,5.58,3.972,77.814,77.814,0,0,1,5.3,5.864c1.892,2.554,4.635,5.58,5.013,8.8.189,1.513.284,2.838-.946,3.973a5.5,5.5,0,0,1-.9.606c2.915-.134,5.036-1.554,7.714-3.16l7-1.892c1.7-1.324,4.351-1.324,4.445-4.067C140.812,209.4,139.772,207.788,138.826,205.9Z" transform="translate(-103.139 -190.445)" fill="#ee848e"/>
          <path id="Path_589" data-name="Path 589" d="M122.353,221.451c-.378-3.215-3.121-6.242-5.013-8.8a77.813,77.813,0,0,0-5.3-5.864,14.711,14.711,0,0,0-5.58-3.972,4.008,4.008,0,0,0-2.981.256,4.207,4.207,0,0,0-.707.783c-1.7,2.648.095,5.013,1.513,7.283.946,1.418,2.08,2.648,2.838,4.067a22.558,22.558,0,0,0,2.553,4.067c2.081,2.743,4.918,6.053,8.607,6.621a10.85,10.85,0,0,0,2.217.133,5.5,5.5,0,0,0,.9-.606C122.636,224.288,122.542,222.964,122.353,221.451Z" transform="translate(-102.082 -195.691)" fill="#ee848e"/>
        </g>
      </g>
      <path id="Path_590" data-name="Path 590" d="M148.338,220.118a9.715,9.715,0,0,1-4.368-5.128c-1.14-3.609.57-8.167-1.9-11.4-3.419-4.749-7.407-1.709-6.837,3.228.57,3.988,2.849,7.407,2.659,11.776-.19,2.279.093,4.089-.666,6.368-.76,2.089-1.8,3.7-1.233,5.787,1.14,4.749,3.419,8.737,6.077,12.726,1.33,1.9,2.469,4.178,4.749,4.748,2.659.76,3.419.57,5.318,2.849,3.229,3.8,5.7,8.167,10.066,11.016,7.217,4.749,16.714,7.217,25.45,4.369a118.605,118.605,0,0,1,25.831-5.888c8.927-.95,16.714,2.089,24.881,5.318,8.357,3.419,17.283,4.178,26.02,6.837,3.8,1.329,8.357,2.469,12.535,2.089,2.089-.19,4.368-2.089,3.608-4.369-.76-2.089-4.178-3.988-5.888-4.938-10.256-4.938-21.652-8.737-32.478-12.155-12.726-3.988-25.261-2.279-38.366-.76-6.458.76-12.915,1.9-19.373,1.9-7.407,0-11.776-3.229-15.384-9.5-2.659-4.368-4.749-8.926-7.217-13.295-1.52-2.469-4.558-7.787-7.977-7.6Z" transform="translate(-99.399 -118.506)" fill="#707070" opacity="0.3" style="mix-blend-mode: multiply;isolation: isolate"/>
      <g id="Group_2526" data-name="Group 2526" transform="translate(33.096 72.939)">
        <g id="Group_2515" data-name="Group 2515">
          <g id="Group_2513" data-name="Group 2513" transform="translate(0 1.625)">
            <path id="Path_591" data-name="Path 591" d="M138.786,196.236c-1.565-1.894-4.775-.823-6.34.576a4.883,4.883,0,0,0-1.729,4.776c.494,1.811,1.894,3.211,2.223,5.022a4.81,4.81,0,0,1-.165,3.047c-.494.988-2.141,1.4-2.305,2.553a4.169,4.169,0,0,0,3.623-1.153c-.329.329-1.647,1.893-1.564,2.47.165.905,1.647.576,2.305.329a5.386,5.386,0,0,0,3.211-5.023c.083.906.741,4.281,1.647,1.729.494-1.235.083-2.881,0-4.117-.165-2.388.247-6.01-.823-8.069Z" transform="translate(-130.47 -190.488)" fill="#633"/>
            <path id="Path_592" data-name="Path 592" d="M149.518,200.386c1.424-.285,3.063-2.35,3.846-3.49a17.957,17.957,0,0,0,1.5-3.846,14.766,14.766,0,0,0,.9-5.991,17.2,17.2,0,0,0-9.465,1.408c-3.541,1.893-4.446,5.434-3.211,9.139,1.344,3.717,5.413,5.314,5.878,9.229.184-.166.351-.329.488-.466A4.911,4.911,0,0,0,149.518,200.386Z" transform="translate(-135.67 -186.917)" fill="#8e4646"/>
          </g>
          <path id="Path_593" data-name="Path 593" d="M166.879,202.629c-.576-.659-1.381-.882-1.71-1.953-.247-.823.412-1.729.659-2.47a7.1,7.1,0,0,0,.082-2.635c-.329-3.953-2.8-7.822-7-8.4-.028,0-.058,0-.086-.008a14.766,14.766,0,0,1-.9,5.991,17.957,17.957,0,0,1-1.5,3.846c-.783,1.14-2.422,3.205-3.846,3.49a4.911,4.911,0,0,1-.071,5.983c-.137.137-.3.3-.488.466.019.161.043.318.05.487.082,1.811-.577,4.857-2.388,5.434l.165.247c.247,0,.494.247.741.494a25.1,25.1,0,0,0,2.058,2.141c1.071.824,2.305,1.482,3.458,2.223,1.977,1.317,4.693,2.8,7.163,2.635,2.882-.165.577-3.7-.411-4.94-.494-.823-1.4-2.305-2.223-2.553-.741-.165-1.994-.072-2.735-.319,0,0,.823-2.526,1.234-3.514,3.393.574,3.855-.245,4.843-1.727a8.967,8.967,0,0,0,.855-2.689,3.149,3.149,0,0,0,1.649-.4C167.226,204.052,167.538,203.37,166.879,202.629Z" transform="translate(-138.738 -185.399)" fill="#ffc8ba"/>
          <g id="Group_2514" data-name="Group 2514" transform="translate(21.588 9.96)">
            <path id="Path_594" data-name="Path 594" d="M171.523,203.593a1.929,1.929,0,0,1,1.852-2.042" transform="translate(-169.719 -201.546)" fill="none" stroke="#3f2215" stroke-miterlimit="10" stroke-width="1"/>
            <path id="Path_595" data-name="Path 595" d="M172.014,220.479c-1.187.427-2.9-.57-3.656-1.472" transform="translate(-168.358 -209.058)" fill="none" stroke="#c66" stroke-miterlimit="10" stroke-width="1"/>
            <path id="Path_596" data-name="Path 596" d="M174.179,208.657c-.083.571-.3,1.011-.492.984s-.273-.513-.19-1.084.3-1.011.492-.983S174.262,208.087,174.179,208.657Z" transform="translate(-170.555 -204.139)"/>
          </g>
          <path id="Path_597" data-name="Path 597" d="M154.259,210.149c-.783-1.424-1.353-2.35-3.419-1.923-1.567.285-2.065,2.564-1.852,3.988.285,1.567,2.208,2.065,3.632,1.923.712-.071,1.424-.214,1.638-.926Z" transform="translate(-138.417 -194.415)" fill="#ffc8ba"/>
          <path id="Path_598" data-name="Path 598" d="M163.832,185.7c-.926-.214-1.424,1.14-1.638,1.781a12.218,12.218,0,0,0-1.068,4.131c-.214,1.781.712,1.424,1.282.071-.142.57-1,2.706-.071,3.063.926.285,1.994-1.638,1.994-2.35h0c0,.427-.356,1.14.071,1.5.5.57,1.14-.427,1.424-.926a7.932,7.932,0,0,0,.57-2.137c-.142.641-.641,3.348.712,2.422.712-.5.855-2.137.855-2.92.071.712-.5,2.422.57,2.493.855.071,1.211-1.638,1.353-2.279,0,.57-.712,2.137-.071,2.493.926.712,1.638-1.353,1.781-1.923-.071.5-.926,1.923-.5,2.422.783.783,1.781-.855,1.994-1.353a7.467,7.467,0,0,0,.641-4.131c-.427-3.276-4.416-4.7-7.265-3.632a6.939,6.939,0,0,0-2.065,1Z" transform="translate(-143.645 -184.066)" fill="#aa5959"/>
        </g>
        <g id="Group_2521" data-name="Group 2521" transform="translate(46.798 45.975)">
          <g id="Group_2517" data-name="Group 2517" transform="translate(5.698)">
            <g id="Group_2516" data-name="Group 2516" transform="translate(81.234 7.953)">
              <path id="Path_599" data-name="Path 599" d="M376.326,299.2c-.534,1.2.889,1.2,1.6.919,1.868-.643,3.647-2.3,5.16-3.587a73.976,73.976,0,0,0,10.321-10.3c1.246-1.655,3.114-6.9-.8-6.53-3.2.276-4.537,4.414-6.584,6.254Z" transform="translate(-369.92 -279.131)" fill="#683333"/>
              <path id="Path_600" data-name="Path 600" d="M376.315,288.7c-.247.209-.492.406-.734.585a27.627,27.627,0,0,1-8.541,4.23l-1.869,6.253a16.7,16.7,0,0,1,3.717,1.867,78.52,78.52,0,0,0,10.163-7.936A9.389,9.389,0,0,1,376.315,288.7Z" transform="translate(-365.171 -283.008)" fill="#d9aa9e"/>
              <path id="Path_601" data-name="Path 601" d="M389.242,278.918c-4.02-1.187-7.207,3.019-10.121,5.484a9.389,9.389,0,0,0,2.736,5,78.519,78.519,0,0,1-10.163,7.936c.3.181.607.358.91.525.89.459,1.513,1.2,2.313.92a12.2,12.2,0,0,0,2.224-1.564,67.094,67.094,0,0,0,10.943-9.38,12.668,12.668,0,0,0,3.114-5.426C391.644,280.3,391.288,279.561,389.242,278.918Z" transform="translate(-367.977 -278.711)" fill="#261919"/>
            </g>
            <path id="Path_602" data-name="Path 602" d="M222.981,283.349c.389,1.319,1.185,1.865,3.075,2.108a31.727,31.727,0,0,0,5.445-.083,35.654,35.654,0,0,0,9.209-2.069c2.936-.828,6.006-1.38,8.942-2.345,2.669-.689,5.472-1.242,8.141-1.794.667,0,1.334-.275,1.868-.275,1.068.137.8.689,1.6.965s1.334-.552,1.868-.552c.8.138.8.552,1.335.966,2.4,1.793,5.6,2.069,8.274,2.9a53.908,53.908,0,0,1,8.274,3.035c4.271,1.793,8.408,2.621,12.678,4,2.136.689,4,.276,6.006,1.379,1.735.828,3.871.828,6.006,1.1,1.2-3.035,2.136-8,1.2-11.173-1.2.827-2.936.413-4-.138-1.735-.965-2.268-1.241-4.271-1.1s-2-.138-3.6-1.379c-1.334-1.1-2.669-.69-4.137-.966-6.272-.827-12.678-6.07-18.15-8.967-2.936-1.793-5.078-3.705-6.94-4.138-3.136-.729-39.1,4.69-41.238,8a13.455,13.455,0,0,0-1.862,8.919A9.078,9.078,0,0,0,222.981,283.349Z" transform="translate(-222.602 -264.754)" fill="#263a61"/>
          </g>
          <g id="Group_2520" data-name="Group 2520" transform="translate(0 4.376)">
            <g id="Group_2518" data-name="Group 2518" transform="translate(86.707 8.212)">
              <path id="Path_603" data-name="Path 603" d="M376.682,308.006c-.57,1.234.949,1.234,1.709.949,1.994-.664,3.893-2.374,5.508-3.7a77.709,77.709,0,0,0,11.016-10.636c1.329-1.709,3.324-7.122-.855-6.743-3.419.285-4.843,4.558-7.028,6.458Z" transform="translate(-369.844 -287.281)" fill="#8e4646"/>
              <path id="Path_604" data-name="Path 604" d="M376.67,297.162c-.263.215-.524.419-.783.6a29.914,29.914,0,0,1-9.117,4.368l-1.994,6.458a18.081,18.081,0,0,1,3.967,1.928,83.516,83.516,0,0,0,10.848-8.2A9.62,9.62,0,0,1,376.67,297.162Z" transform="translate(-364.776 -291.285)" fill="#ffc8ba"/>
              <path id="Path_605" data-name="Path 605" d="M390.467,287.061c-4.29-1.226-7.693,3.118-10.8,5.664a9.62,9.62,0,0,0,2.921,5.162,83.519,83.519,0,0,1-10.848,8.2c.324.186.647.37.971.541.95.475,1.615,1.235,2.469.95a13.066,13.066,0,0,0,2.374-1.615,71.063,71.063,0,0,0,11.681-9.686,12.983,12.983,0,0,0,3.324-5.6C393.031,288.485,392.651,287.725,390.467,287.061Z" transform="translate(-367.771 -286.847)" fill="#4c3232"/>
            </g>
            <g id="Group_2519" data-name="Group 2519">
              <path id="Path_606" data-name="Path 606" d="M213.007,291.637c.415,1.362,1.264,1.926,3.282,2.177a35.115,35.115,0,0,0,5.812-.087,39.13,39.13,0,0,0,9.829-2.137c3.134-.855,6.411-1.424,9.544-2.422,2.849-.712,5.84-1.282,8.689-1.852.712,0,1.424-.285,1.994-.285,1.14.142.855.712,1.709,1s1.424-.57,1.994-.57c.855.142.855.57,1.424,1,2.564,1.852,5.983,2.137,8.832,2.991a58.872,58.872,0,0,1,8.832,3.134c4.558,1.852,8.974,2.706,13.532,4.131,2.279.712,4.273.285,6.41,1.424,1.852.855,4.131.855,6.41,1.14,1.282-3.134,2.279-8.262,1.282-11.538-1.282.855-3.134.427-4.273-.142-1.852-1-2.422-1.282-4.558-1.14s-2.137-.142-3.846-1.424c-1.424-1.14-2.849-.712-4.416-1-6.695-.855-13.532-6.268-19.373-9.259-3.134-1.852-5.42-3.827-7.407-4.273-3.347-.753-41.736,4.843-44.017,8.262a13.522,13.522,0,0,0-1.987,9.211A9.08,9.08,0,0,0,213.007,291.637Z" transform="translate(-212.602 -272.434)" fill="#355087"/>
              <path id="Path_607" data-name="Path 607" d="M351.355,304.211c-.429.858-1.216,7.366.143,6.65.5-.286,1-2.86,1.216-3.432a16.079,16.079,0,0,1,1.358-3c.715.5.644,2,.644,2.789.071,1.573,0,3.218,0,4.863" transform="translate(-272.029 -286.105)" fill="none" stroke="#263a61" stroke-miterlimit="10" stroke-width="1"/>
              <path id="Path_608" data-name="Path 608" d="M362.22,304.963c0,2.289.215,4.863-.858,7.008" transform="translate(-276.601 -286.429)" fill="none" stroke="#263a61" stroke-miterlimit="10" stroke-width="1"/>
            </g>
          </g>
        </g>
        <g id="Group_2525" data-name="Group 2525" transform="translate(6.123 26.584)">
          <g id="Group_2522" data-name="Group 2522" transform="translate(13.423 0.339)">
            <path id="Path_609" data-name="Path 609" d="M195.933,248.388c3.514,2.279,8.167,2.849,12.155,3.7a88.291,88.291,0,0,0,14.15,1.52c1.994.1,4.083.285,6.173.285a32.229,32.229,0,0,0,5.7-.213c.891-.136,1.9,1.732,1.614,2.872-.285.949-1.424,1.14-2.374,1.234-2.089.285-4.084.38-6.078.57-3.989.285-10.669.62-14.657.62,0,0-5.4-.776-9.274-1.57-3.7-.759-10.066-4.084-10.066-4.084Z" transform="translate(-177.035 -238.661)" fill="#ffc8ba"/>
            <path id="Path_610" data-name="Path 610" d="M223.367,255.325a8.493,8.493,0,0,1,.9,3.555,18,18,0,0,0,3.5.226,6.537,6.537,0,0,0-.79-3.274Z" transform="translate(-189.982 -241.646)" fill="#fff"/>
            <path id="Path_611" data-name="Path 611" d="M260.942,255.65c1.234-.142,2.469-1.234,3.608-1.709,1-.475,1.852-1.044,2.849-1.472a1.952,1.952,0,0,1,1.614-.238,3,3,0,0,1,1.33,1.33c.522.855.2,1.838.389,2.787s.618,2.279-.475,2.706c-1.092.475-1.529.014-2.573-.129a13.608,13.608,0,0,0-3.087.142c-.855.1-2.089.665-2.9.333Z" transform="translate(-206.147 -240.272)" fill="#ffc8ba"/>
            <path id="Path_612" data-name="Path 612" d="M271.247,256.389a2.72,2.72,0,0,1-1.472,2.231" transform="translate(-209.947 -242.103)" fill="none" stroke="#c66" stroke-linecap="round" stroke-linejoin="round" stroke-width="0.8"/>
            <path id="Path_613" data-name="Path 613" d="M265.325,258.555c.522,1.472,2.184,1.235,3.371,1.567.475.142.655.514.665,1.092.018,1.053-1.52.617-1.994.759-1.045.238-.855.855-1.9,1a4.838,4.838,0,0,1-2.185-.19c-.76-.332-.855-.855-1.424-1.329" transform="translate(-206.541 -243.035)" fill="#ffc8ba" stroke="#c66" stroke-linecap="round" stroke-linejoin="round" stroke-width="0.8"/>
            <path id="Path_614" data-name="Path 614" d="M181.013,246.267a8.137,8.137,0,0,0,4.9-6.014s-6.757-2.818-10.08-5.572a14.031,14.031,0,0,0-5.366-2.9c-1.994-.38-3.988-.808-5.7-.048,2.374,1.8,5.318,3.989,7.882,5.793a34.9,34.9,0,0,1,5.318,4.273Z" transform="translate(-164.774 -231.317)" fill="#d6729b"/>
          </g>
          <g id="Group_2523" data-name="Group 2523" transform="translate(0.884)">
            <path id="Path_615" data-name="Path 615" d="M197.471,253.7c-1.8-.19-3.8-.475-5.6-.76-3.8-.57-7.5-.95-11.111-2.279-2.374-.95-4.084-1.615-5.508-3.8-1.876-1.9-2.8-4.451-4.653-6.868-1.474-1.921-7.028-4.432-8.737-5.952,0,0-3.988-3.324-6.553-2.564.161.141,1.488,2.241,3.474,5.457-2.038-.952-4.126-1.812-6.133-2.893-1.045-.475-2.072-1.17-3.039-1.709l-2.9-1.614c-2.089.855-4.035,2.469-3.94,4.938.285,5.033,5.223,7.6,8.262,10.921,1.615,1.8,3.134,3.8,4.749,5.7,1.8,1.994,3.8,3.893,5.508,5.983,3.039,3.893,5.983,7.882,9.686,11.111a42.553,42.553,0,0,0,6.078,4.084c1.614.949,3.893,2.564,5.7,2.943a53.791,53.791,0,0,1,5.888-10.731,23.858,23.858,0,0,1,6.268-6.078c2.279-1.424,4.273-3.039,6.458-4.463a19.482,19.482,0,0,1,1.9-1.1C201.839,253.17,199.086,253.8,197.471,253.7Z" transform="translate(-142.768 -230.722)" fill="#ff88ad"/>
            <path id="Path_616" data-name="Path 616" d="M218.162,272.508c-2.687.733-5.293,3.42-7,5.619a21.64,21.64,0,0,0-2.85,5.212c-.733,1.71-1.222,4.153-2.85,5.13a13.929,13.929,0,0,1,1.791-8.8c1.628-3.176,4.153-5.049,6.6-7.411-3.013-.081-5.619,2.85-7.41,4.8a25.135,25.135,0,0,0-2.932,3.664c-.815,1.3-2.036,3.094-2.2,4.642" transform="translate(-167.952 -248.593)" fill="none" stroke="#d6729b" stroke-linecap="round" stroke-linejoin="round" stroke-width="0.8"/>
          </g>
          <g id="Group_2524" data-name="Group 2524" transform="translate(0 2.404)">
            <path id="Path_617" data-name="Path 617" d="M160.789,270.607c1.989,1.894,9.6,12.018,10.04,12.129.913.231,9.754-.954,11.743-1.238a60.605,60.605,0,0,0,12.88-2.463c2.084-.757,1.8-2.841-.379-2.936-1.989-.095-4.072.284-6.061.284-4.261,0-8.523.663-12.691.663a14.282,14.282,0,0,1-2.841-.095c-1.414-.315-8.474-9.848-8.9-10.7Z" transform="translate(-149.637 -248.41)" fill="#ffc8ba"/>
            <path id="Path_618" data-name="Path 618" d="M150.6,259.028a8.876,8.876,0,0,1,1.557-.655,19.906,19.906,0,0,0,3.4-2.172,14.627,14.627,0,0,0,3.032-3.319c.164-.246.9-.942.942-1.188.041-.328-.7-.819-.942-1.066a62.221,62.221,0,0,1-5.163-5.736c-1.6-2.049-3.36-3.934-4.958-5.983a24.437,24.437,0,0,0-2.213-2.786,5.564,5.564,0,0,0-2.54-1.148c-1.619-.469-2.57,3.807-2.5,5.245.456,9.314,8.933,18.562,9.219,18.6Z" transform="translate(-141.217 -234.94)" fill="#ffabc9"/>
            <path id="Path_619" data-name="Path 619" d="M226.674,285.7a8.225,8.225,0,0,1-2.023-2.255c.6-.345,3.835,3.907,4.494,2.94.34-.2-.948-1.489-1.444-2.014-.676-.629-1.189-1.381-1.808-2.009,1.394.4,3.7,3.859,4.255,3.183.4-.518-2.089-3.077-3.128-3.955,1.616.624,2.53,2.516,3.793,2.7.476-.332-1.48-2.677-2.37-3.172a5.959,5.959,0,0,0-2.535-.87c-2.217-.211-6.466,1.223-8.633,1.558-1.922.3-1.6,2.585.171,3.977,1.438,1.133,4.958-.313,6.532-.613a12.813,12.813,0,0,1,1.371.721,5.351,5.351,0,0,0,1.8,1.117C227.835,287.1,227.168,286.175,226.674,285.7Z" transform="translate(-173.377 -254.424)" fill="#ffc8ba"/>
          </g>
        </g>
      </g>
      <g id="Group_2527" data-name="Group 2527" transform="translate(77.333 24.026)">
        <path id="Path_620" data-name="Path 620" d="M225.494,206.86c0-1.14-.76-2.279-1.14-3.419-1.329-4.178,1.33-8.737,5.7-11.016,2.279-.95,4.558-1.329,4.938-4.178.57-2.089-.57-4.369-1.9-6.078-3.229-4.178-7.6-6.457-8.927-11.776-1.14-5.128-.76-10.636-.95-15.764s0-10.636.19-15.575" transform="translate(-214.573 -115.789)" fill="none" stroke="#bc4444" stroke-linecap="round" stroke-linejoin="round" stroke-width="1"/>
        <path id="Path_621" data-name="Path 621" d="M222.981,98.222H211.373a3.265,3.265,0,0,0-3.265,3.265v17.05a3.265,3.265,0,0,0,3.265,3.265h.454c-.066,1.572-.044,4.053.744,4.055,1.871,0,1.725-2.395,1.544-4.055h6.259c-.066,1.572-.044,4.053.744,4.055,1.871,0,1.725-2.395,1.544-4.055h.32a3.265,3.265,0,0,0,3.265-3.265v-17.05A3.265,3.265,0,0,0,222.981,98.222Z" transform="translate(-208.108 -98.222)" fill="#caeef9"/>
        <path id="Path_622" data-name="Path 622" d="M215.475,126.174c-.949,0-2.184.19-3.039-.38-1.424-1.14-1.329-3.324-1.329-4.938v-7.692c0-1.329.285-1.709,1.8-1.8a17.31,17.31,0,0,1,3.134.095,45.927,45.927,0,0,0,6.268,0c2.469-.095,3.609.285,3.419,3.134-.095,2.089.021,5.484.021,7.669,0,2.374-.5,3.727-3.154,4.012a3.131,3.131,0,0,1-1.329,0Z" transform="translate(-209.398 -103.857)" fill="#bc4444"/>
        <rect id="Rectangle_75" data-name="Rectangle 75" width="9.564" height="3.419" transform="translate(4.083 12.44)" fill="#fff"/>
      </g>
    </g>
  </g>
</svg>
